<mxfile host="app.diagrams.net" modified="2023-06-05T11:27:54.679Z" agent="Mozilla/5.0 (Windows NT 10.0; Win64; x64) AppleWebKit/537.36 (KHTML, like Gecko) Chrome/114.0.0.0 Safari/537.36" etag="J869WQK62jnsYGXfybo8" version="21.3.7" type="github" pages="5">
  <diagram id="C5RBs43oDa-KdzZeNtuy" name="ICS工单创建">
    <mxGraphModel dx="1050" dy="549" grid="1" gridSize="10" guides="1" tooltips="1" connect="1" arrows="1" fold="1" page="1" pageScale="1" pageWidth="1169" pageHeight="1654" math="0" shadow="0">
      <root>
        <mxCell id="WIyWlLk6GJQsqaUBKTNV-0" />
        <mxCell id="WIyWlLk6GJQsqaUBKTNV-1" parent="WIyWlLk6GJQsqaUBKTNV-0" />
        <mxCell id="4DzWm4lysE0vdOQa_RRj-0" value="ICSController" style="shape=umlLifeline;perimeter=lifelinePerimeter;whiteSpace=wrap;html=1;container=1;collapsible=0;recursiveResize=0;outlineConnect=0;fontSize=16;fillColor=#dae8fc;strokeColor=#6c8ebf;" parent="WIyWlLk6GJQsqaUBKTNV-1" vertex="1">
          <mxGeometry x="65" y="136" width="140" height="1030" as="geometry" />
        </mxCell>
        <mxCell id="4DzWm4lysE0vdOQa_RRj-1" value="" style="html=1;points=[];perimeter=orthogonalPerimeter;fontSize=16;" parent="4DzWm4lysE0vdOQa_RRj-0" vertex="1">
          <mxGeometry x="65" y="90" width="10" height="560" as="geometry" />
        </mxCell>
        <mxCell id="4DzWm4lysE0vdOQa_RRj-85" value="" style="html=1;points=[];perimeter=orthogonalPerimeter;fontSize=16;" parent="4DzWm4lysE0vdOQa_RRj-0" vertex="1">
          <mxGeometry x="65" y="700" width="10" height="130" as="geometry" />
        </mxCell>
        <mxCell id="4DzWm4lysE0vdOQa_RRj-89" value="" style="endArrow=classic;html=1;rounded=0;fontSize=16;fillColor=#FF8000;strokeColor=#000000;" parent="4DzWm4lysE0vdOQa_RRj-0" edge="1">
          <mxGeometry width="50" height="50" relative="1" as="geometry">
            <mxPoint x="75" y="760" as="sourcePoint" />
            <mxPoint x="274.5" y="760" as="targetPoint" />
          </mxGeometry>
        </mxCell>
        <mxCell id="4DzWm4lysE0vdOQa_RRj-90" value="创建工单" style="edgeLabel;html=1;align=center;verticalAlign=middle;resizable=0;points=[];fontSize=16;" parent="4DzWm4lysE0vdOQa_RRj-89" vertex="1" connectable="0">
          <mxGeometry x="-0.1589" relative="1" as="geometry">
            <mxPoint as="offset" />
          </mxGeometry>
        </mxCell>
        <mxCell id="4DzWm4lysE0vdOQa_RRj-2" value="IcsService" style="shape=umlLifeline;perimeter=lifelinePerimeter;whiteSpace=wrap;html=1;container=1;collapsible=0;recursiveResize=0;outlineConnect=0;fontSize=16;fillColor=#ffe6cc;strokeColor=#d79b00;" parent="WIyWlLk6GJQsqaUBKTNV-1" vertex="1">
          <mxGeometry x="265" y="136" width="160" height="1030" as="geometry" />
        </mxCell>
        <mxCell id="4DzWm4lysE0vdOQa_RRj-3" value="" style="html=1;points=[];perimeter=orthogonalPerimeter;fontSize=16;" parent="4DzWm4lysE0vdOQa_RRj-2" vertex="1">
          <mxGeometry x="75" y="93" width="10" height="557" as="geometry" />
        </mxCell>
        <mxCell id="4DzWm4lysE0vdOQa_RRj-29" value="创建成功" style="text;html=1;align=center;verticalAlign=middle;resizable=0;points=[];autosize=1;strokeColor=none;fillColor=none;fontSize=16;fontColor=#009900;" parent="4DzWm4lysE0vdOQa_RRj-2" vertex="1">
          <mxGeometry x="-10" y="130" width="90" height="30" as="geometry" />
        </mxCell>
        <mxCell id="4DzWm4lysE0vdOQa_RRj-30" value="&lt;font color=&quot;#ff0000&quot;&gt;创建失败&lt;/font&gt;" style="text;html=1;align=center;verticalAlign=middle;resizable=0;points=[];autosize=1;strokeColor=none;fillColor=none;fontSize=16;fontColor=#009900;" parent="4DzWm4lysE0vdOQa_RRj-2" vertex="1">
          <mxGeometry x="-10" y="510" width="90" height="30" as="geometry" />
        </mxCell>
        <mxCell id="4DzWm4lysE0vdOQa_RRj-33" value="" style="endArrow=classic;html=1;rounded=0;fontSize=16;strokeColor=#000000;" parent="4DzWm4lysE0vdOQa_RRj-2" edge="1">
          <mxGeometry width="50" height="50" relative="1" as="geometry">
            <mxPoint x="60" y="630" as="sourcePoint" />
            <mxPoint x="-120" y="630" as="targetPoint" />
          </mxGeometry>
        </mxCell>
        <mxCell id="4DzWm4lysE0vdOQa_RRj-34" value="返回结果" style="edgeLabel;html=1;align=center;verticalAlign=middle;resizable=0;points=[];fontSize=16;" parent="4DzWm4lysE0vdOQa_RRj-33" vertex="1" connectable="0">
          <mxGeometry x="-0.1589" relative="1" as="geometry">
            <mxPoint x="-14" as="offset" />
          </mxGeometry>
        </mxCell>
        <mxCell id="4DzWm4lysE0vdOQa_RRj-88" value="" style="html=1;points=[];perimeter=orthogonalPerimeter;fontSize=16;" parent="4DzWm4lysE0vdOQa_RRj-2" vertex="1">
          <mxGeometry x="75" y="747" width="10" height="83" as="geometry" />
        </mxCell>
        <mxCell id="4DzWm4lysE0vdOQa_RRj-91" value="" style="endArrow=classic;html=1;rounded=0;fontSize=16;strokeColor=#000000;" parent="4DzWm4lysE0vdOQa_RRj-2" edge="1">
          <mxGeometry width="50" height="50" relative="1" as="geometry">
            <mxPoint x="70" y="810" as="sourcePoint" />
            <mxPoint x="-120" y="810" as="targetPoint" />
          </mxGeometry>
        </mxCell>
        <mxCell id="4DzWm4lysE0vdOQa_RRj-92" value="返回结果" style="edgeLabel;html=1;align=center;verticalAlign=middle;resizable=0;points=[];fontSize=16;" parent="4DzWm4lysE0vdOQa_RRj-91" vertex="1" connectable="0">
          <mxGeometry x="-0.1589" relative="1" as="geometry">
            <mxPoint x="-14" as="offset" />
          </mxGeometry>
        </mxCell>
        <mxCell id="4DzWm4lysE0vdOQa_RRj-93" value="" style="html=1;points=[];perimeter=orthogonalPerimeter;fontSize=16;" parent="4DzWm4lysE0vdOQa_RRj-2" vertex="1">
          <mxGeometry x="-135" y="860" width="10" height="130" as="geometry" />
        </mxCell>
        <mxCell id="4DzWm4lysE0vdOQa_RRj-94" value="" style="endArrow=classic;html=1;rounded=0;fontSize=16;strokeColor=#000000;" parent="4DzWm4lysE0vdOQa_RRj-2" edge="1">
          <mxGeometry width="50" height="50" relative="1" as="geometry">
            <mxPoint x="-125" y="920" as="sourcePoint" />
            <mxPoint x="74.5" y="920" as="targetPoint" />
          </mxGeometry>
        </mxCell>
        <mxCell id="4DzWm4lysE0vdOQa_RRj-95" value="创建工单" style="edgeLabel;html=1;align=center;verticalAlign=middle;resizable=0;points=[];fontSize=16;" parent="4DzWm4lysE0vdOQa_RRj-94" vertex="1" connectable="0">
          <mxGeometry x="-0.1589" relative="1" as="geometry">
            <mxPoint as="offset" />
          </mxGeometry>
        </mxCell>
        <mxCell id="4DzWm4lysE0vdOQa_RRj-96" value="" style="html=1;points=[];perimeter=orthogonalPerimeter;fontSize=16;" parent="4DzWm4lysE0vdOQa_RRj-2" vertex="1">
          <mxGeometry x="75" y="907" width="10" height="83" as="geometry" />
        </mxCell>
        <mxCell id="4DzWm4lysE0vdOQa_RRj-97" value="" style="endArrow=classic;html=1;rounded=0;fontSize=16;strokeColor=#000000;" parent="4DzWm4lysE0vdOQa_RRj-2" edge="1">
          <mxGeometry width="50" height="50" relative="1" as="geometry">
            <mxPoint x="70" y="970" as="sourcePoint" />
            <mxPoint x="-120" y="970" as="targetPoint" />
          </mxGeometry>
        </mxCell>
        <mxCell id="4DzWm4lysE0vdOQa_RRj-98" value="返回结果" style="edgeLabel;html=1;align=center;verticalAlign=middle;resizable=0;points=[];fontSize=16;" parent="4DzWm4lysE0vdOQa_RRj-97" vertex="1" connectable="0">
          <mxGeometry x="-0.1589" relative="1" as="geometry">
            <mxPoint x="-14" as="offset" />
          </mxGeometry>
        </mxCell>
        <mxCell id="4DzWm4lysE0vdOQa_RRj-99" value="" style="html=1;points=[];perimeter=orthogonalPerimeter;fontSize=16;" parent="4DzWm4lysE0vdOQa_RRj-2" vertex="1">
          <mxGeometry x="275" y="860" width="10" height="90" as="geometry" />
        </mxCell>
        <mxCell id="4DzWm4lysE0vdOQa_RRj-100" value="" style="endArrow=classic;html=1;rounded=0;fontSize=16;strokeColor=#FF8000;" parent="4DzWm4lysE0vdOQa_RRj-2" edge="1">
          <mxGeometry width="50" height="50" relative="1" as="geometry">
            <mxPoint x="270" y="875" as="sourcePoint" />
            <mxPoint x="-120" y="875" as="targetPoint" />
          </mxGeometry>
        </mxCell>
        <mxCell id="4DzWm4lysE0vdOQa_RRj-101" value="&lt;font color=&quot;#ff8000&quot;&gt;2.工单回复补偿&lt;/font&gt;" style="edgeLabel;html=1;align=center;verticalAlign=middle;resizable=0;points=[];fontSize=16;" parent="4DzWm4lysE0vdOQa_RRj-100" vertex="1" connectable="0">
          <mxGeometry x="-0.1589" relative="1" as="geometry">
            <mxPoint x="-14" as="offset" />
          </mxGeometry>
        </mxCell>
        <mxCell id="4DzWm4lysE0vdOQa_RRj-5" value="ICS" style="shape=umlLifeline;perimeter=lifelinePerimeter;whiteSpace=wrap;html=1;container=1;collapsible=0;recursiveResize=0;outlineConnect=0;fontSize=16;fillColor=#f8cecc;strokeColor=#b85450;" parent="WIyWlLk6GJQsqaUBKTNV-1" vertex="1">
          <mxGeometry x="475" y="136" width="140" height="920" as="geometry" />
        </mxCell>
        <mxCell id="4DzWm4lysE0vdOQa_RRj-6" value="" style="html=1;points=[];perimeter=orthogonalPerimeter;fontSize=16;" parent="4DzWm4lysE0vdOQa_RRj-5" vertex="1">
          <mxGeometry x="65" y="130" width="10" height="60" as="geometry" />
        </mxCell>
        <mxCell id="4DzWm4lysE0vdOQa_RRj-18" value="" style="endArrow=classic;html=1;rounded=0;fontSize=16;strokeColor=#009900;" parent="4DzWm4lysE0vdOQa_RRj-5" edge="1">
          <mxGeometry width="50" height="50" relative="1" as="geometry">
            <mxPoint x="-130" y="150" as="sourcePoint" />
            <mxPoint x="65" y="149.99999999999997" as="targetPoint" />
          </mxGeometry>
        </mxCell>
        <mxCell id="4DzWm4lysE0vdOQa_RRj-19" value="&lt;font color=&quot;#009900&quot;&gt;异步更新&lt;/font&gt;" style="edgeLabel;html=1;align=center;verticalAlign=middle;resizable=0;points=[];fontSize=16;" parent="4DzWm4lysE0vdOQa_RRj-18" vertex="1" connectable="0">
          <mxGeometry x="-0.1589" relative="1" as="geometry">
            <mxPoint x="18" as="offset" />
          </mxGeometry>
        </mxCell>
        <mxCell id="4DzWm4lysE0vdOQa_RRj-21" value="" style="endArrow=classic;html=1;rounded=0;fontSize=16;entryX=-0.28;entryY=0.675;entryDx=0;entryDy=0;entryPerimeter=0;fillColor=#d5e8d4;strokeColor=#009900;" parent="4DzWm4lysE0vdOQa_RRj-5" edge="1">
          <mxGeometry width="50" height="50" relative="1" as="geometry">
            <mxPoint x="-130" y="210" as="sourcePoint" />
            <mxPoint x="287.20000000000005" y="211" as="targetPoint" />
          </mxGeometry>
        </mxCell>
        <mxCell id="4DzWm4lysE0vdOQa_RRj-22" value="转交ICS工单" style="edgeLabel;html=1;align=center;verticalAlign=middle;resizable=0;points=[];fontSize=16;fontColor=#009900;" parent="4DzWm4lysE0vdOQa_RRj-21" vertex="1" connectable="0">
          <mxGeometry x="-0.1589" relative="1" as="geometry">
            <mxPoint x="135" as="offset" />
          </mxGeometry>
        </mxCell>
        <mxCell id="4DzWm4lysE0vdOQa_RRj-53" value="" style="html=1;points=[];perimeter=orthogonalPerimeter;fontSize=16;" parent="4DzWm4lysE0vdOQa_RRj-5" vertex="1">
          <mxGeometry x="65" y="250" width="10" height="60" as="geometry" />
        </mxCell>
        <mxCell id="4DzWm4lysE0vdOQa_RRj-56" value="" style="endArrow=classic;html=1;rounded=0;fontSize=16;strokeColor=#009900;exitX=-0.08;exitY=0.756;exitDx=0;exitDy=0;exitPerimeter=0;" parent="4DzWm4lysE0vdOQa_RRj-5" edge="1">
          <mxGeometry width="50" height="50" relative="1" as="geometry">
            <mxPoint x="290" y="260" as="sourcePoint" />
            <mxPoint x="70" y="260" as="targetPoint" />
          </mxGeometry>
        </mxCell>
        <mxCell id="4DzWm4lysE0vdOQa_RRj-57" value="&lt;font color=&quot;#009900&quot;&gt;转交工单&lt;/font&gt;" style="edgeLabel;html=1;align=center;verticalAlign=middle;resizable=0;points=[];fontSize=16;" parent="4DzWm4lysE0vdOQa_RRj-56" vertex="1" connectable="0">
          <mxGeometry x="-0.1589" relative="1" as="geometry">
            <mxPoint x="-17" as="offset" />
          </mxGeometry>
        </mxCell>
        <mxCell id="4DzWm4lysE0vdOQa_RRj-66" value="" style="html=1;points=[];perimeter=orthogonalPerimeter;fontSize=16;" parent="4DzWm4lysE0vdOQa_RRj-5" vertex="1">
          <mxGeometry x="65" y="390" width="10" height="60" as="geometry" />
        </mxCell>
        <mxCell id="4DzWm4lysE0vdOQa_RRj-67" value="" style="endArrow=classic;html=1;rounded=0;fontSize=16;strokeColor=#009900;exitX=-0.08;exitY=0.756;exitDx=0;exitDy=0;exitPerimeter=0;" parent="4DzWm4lysE0vdOQa_RRj-5" edge="1">
          <mxGeometry width="50" height="50" relative="1" as="geometry">
            <mxPoint x="280" y="400" as="sourcePoint" />
            <mxPoint x="80" y="400" as="targetPoint" />
          </mxGeometry>
        </mxCell>
        <mxCell id="4DzWm4lysE0vdOQa_RRj-68" value="&lt;font color=&quot;#009900&quot;&gt;转交工单&lt;/font&gt;" style="edgeLabel;html=1;align=center;verticalAlign=middle;resizable=0;points=[];fontSize=16;" parent="4DzWm4lysE0vdOQa_RRj-67" vertex="1" connectable="0">
          <mxGeometry x="-0.1589" relative="1" as="geometry">
            <mxPoint x="-17" as="offset" />
          </mxGeometry>
        </mxCell>
        <mxCell id="4DzWm4lysE0vdOQa_RRj-69" value="" style="html=1;points=[];perimeter=orthogonalPerimeter;fontSize=16;" parent="4DzWm4lysE0vdOQa_RRj-5" vertex="1">
          <mxGeometry x="65" y="560" width="10" height="60" as="geometry" />
        </mxCell>
        <mxCell id="4DzWm4lysE0vdOQa_RRj-70" value="" style="html=1;points=[];perimeter=orthogonalPerimeter;fontSize=16;" parent="4DzWm4lysE0vdOQa_RRj-5" vertex="1">
          <mxGeometry x="65" y="700" width="10" height="90" as="geometry" />
        </mxCell>
        <mxCell id="4DzWm4lysE0vdOQa_RRj-86" value="" style="endArrow=classic;html=1;rounded=0;fontSize=16;strokeColor=#FF8000;" parent="4DzWm4lysE0vdOQa_RRj-5" edge="1">
          <mxGeometry width="50" height="50" relative="1" as="geometry">
            <mxPoint x="60" y="715" as="sourcePoint" />
            <mxPoint x="-330" y="715" as="targetPoint" />
          </mxGeometry>
        </mxCell>
        <mxCell id="4DzWm4lysE0vdOQa_RRj-87" value="&lt;font color=&quot;#ff8000&quot;&gt;1.更新表单数据补偿&lt;/font&gt;" style="edgeLabel;html=1;align=center;verticalAlign=middle;resizable=0;points=[];fontSize=16;" parent="4DzWm4lysE0vdOQa_RRj-86" vertex="1" connectable="0">
          <mxGeometry x="-0.1589" relative="1" as="geometry">
            <mxPoint x="-14" as="offset" />
          </mxGeometry>
        </mxCell>
        <mxCell id="4DzWm4lysE0vdOQa_RRj-9" value="" style="endArrow=classic;html=1;rounded=0;fontSize=16;" parent="WIyWlLk6GJQsqaUBKTNV-1" target="4DzWm4lysE0vdOQa_RRj-2" edge="1">
          <mxGeometry width="50" height="50" relative="1" as="geometry">
            <mxPoint x="145" y="246" as="sourcePoint" />
            <mxPoint x="225" y="246" as="targetPoint" />
          </mxGeometry>
        </mxCell>
        <mxCell id="4DzWm4lysE0vdOQa_RRj-10" value="创建工单" style="edgeLabel;html=1;align=center;verticalAlign=middle;resizable=0;points=[];fontSize=16;" parent="4DzWm4lysE0vdOQa_RRj-9" vertex="1" connectable="0">
          <mxGeometry x="-0.1589" relative="1" as="geometry">
            <mxPoint as="offset" />
          </mxGeometry>
        </mxCell>
        <mxCell id="4DzWm4lysE0vdOQa_RRj-12" value="中间应用服务" style="text;html=1;resizable=0;autosize=1;align=center;verticalAlign=middle;points=[];fillColor=none;strokeColor=none;rounded=0;shadow=0;glass=0;dashed=1;sketch=0;strokeWidth=1;fontSize=16;" parent="WIyWlLk6GJQsqaUBKTNV-1" vertex="1">
          <mxGeometry x="80" y="96" width="120" height="30" as="geometry" />
        </mxCell>
        <mxCell id="4DzWm4lysE0vdOQa_RRj-13" value="OA系统" style="text;html=1;resizable=0;autosize=1;align=center;verticalAlign=middle;points=[];fillColor=none;strokeColor=none;rounded=0;shadow=0;glass=0;dashed=1;sketch=0;strokeWidth=1;fontSize=16;" parent="WIyWlLk6GJQsqaUBKTNV-1" vertex="1">
          <mxGeometry x="300" y="96" width="80" height="30" as="geometry" />
        </mxCell>
        <mxCell id="4DzWm4lysE0vdOQa_RRj-14" value="ICS系统" style="text;html=1;resizable=0;autosize=1;align=center;verticalAlign=middle;points=[];fillColor=none;strokeColor=none;rounded=0;shadow=0;glass=0;dashed=1;sketch=0;strokeWidth=1;fontSize=16;" parent="WIyWlLk6GJQsqaUBKTNV-1" vertex="1">
          <mxGeometry x="505" y="96" width="80" height="30" as="geometry" />
        </mxCell>
        <mxCell id="4DzWm4lysE0vdOQa_RRj-15" value="TransferIcsTicketService" style="shape=umlLifeline;perimeter=lifelinePerimeter;whiteSpace=wrap;html=1;container=1;collapsible=0;recursiveResize=0;outlineConnect=0;fontSize=16;fillColor=#ffe6cc;strokeColor=#d79b00;" parent="WIyWlLk6GJQsqaUBKTNV-1" vertex="1">
          <mxGeometry x="675" y="136" width="190" height="920" as="geometry" />
        </mxCell>
        <mxCell id="4DzWm4lysE0vdOQa_RRj-54" value="TransferIcsTicketService" style="shape=umlLifeline;perimeter=lifelinePerimeter;whiteSpace=wrap;html=1;container=1;collapsible=0;recursiveResize=0;outlineConnect=0;fontSize=16;fillColor=#ffe6cc;strokeColor=#d79b00;" parent="4DzWm4lysE0vdOQa_RRj-15" vertex="1">
          <mxGeometry width="190" height="920" as="geometry" />
        </mxCell>
        <mxCell id="4DzWm4lysE0vdOQa_RRj-55" value="" style="html=1;points=[];perimeter=orthogonalPerimeter;fontSize=16;" parent="4DzWm4lysE0vdOQa_RRj-54" vertex="1">
          <mxGeometry x="90" y="190" width="10" height="290" as="geometry" />
        </mxCell>
        <mxCell id="4DzWm4lysE0vdOQa_RRj-58" value="" style="html=1;points=[];perimeter=orthogonalPerimeter;fontSize=16;fontColor=#000000;" parent="4DzWm4lysE0vdOQa_RRj-54" vertex="1">
          <mxGeometry x="80" y="375" width="10" height="75" as="geometry" />
        </mxCell>
        <mxCell id="4DzWm4lysE0vdOQa_RRj-59" value="&lt;font color=&quot;#ff0000&quot;&gt;失败重试&lt;/font&gt;" style="edgeStyle=orthogonalEdgeStyle;html=1;align=left;spacingLeft=2;endArrow=block;rounded=0;strokeColor=#FF0000;fontSize=16;fontColor=#000000;" parent="4DzWm4lysE0vdOQa_RRj-54" edge="1">
          <mxGeometry x="0.0991" y="-40" relative="1" as="geometry">
            <mxPoint x="87" y="320" as="sourcePoint" />
            <Array as="points">
              <mxPoint x="50" y="320" />
              <mxPoint x="50" y="375" />
            </Array>
            <mxPoint x="80" y="375" as="targetPoint" />
            <mxPoint as="offset" />
          </mxGeometry>
        </mxCell>
        <mxCell id="4DzWm4lysE0vdOQa_RRj-63" value="" style="endArrow=classic;html=1;rounded=0;fontSize=16;strokeColor=#009900;" parent="4DzWm4lysE0vdOQa_RRj-54" edge="1">
          <mxGeometry width="50" height="50" relative="1" as="geometry">
            <mxPoint x="-119.5" y="300" as="sourcePoint" />
            <mxPoint x="94.5" y="300" as="targetPoint" />
          </mxGeometry>
        </mxCell>
        <mxCell id="4DzWm4lysE0vdOQa_RRj-64" value="&lt;font color=&quot;#009900&quot;&gt;返回结果&lt;/font&gt;" style="edgeLabel;html=1;align=center;verticalAlign=middle;resizable=0;points=[];fontSize=16;" parent="4DzWm4lysE0vdOQa_RRj-63" vertex="1" connectable="0">
          <mxGeometry x="-0.1589" relative="1" as="geometry">
            <mxPoint x="12" as="offset" />
          </mxGeometry>
        </mxCell>
        <mxCell id="4DzWm4lysE0vdOQa_RRj-61" value="" style="endArrow=classic;html=1;rounded=0;fontSize=16;strokeColor=#FF0080;" parent="4DzWm4lysE0vdOQa_RRj-54" edge="1">
          <mxGeometry width="50" height="50" relative="1" as="geometry">
            <mxPoint x="340" y="570" as="sourcePoint" />
            <mxPoint x="-125" y="570" as="targetPoint" />
          </mxGeometry>
        </mxCell>
        <mxCell id="4DzWm4lysE0vdOQa_RRj-62" value="&lt;font&gt;消息通知&lt;/font&gt;" style="edgeLabel;html=1;align=center;verticalAlign=middle;resizable=0;points=[];fontSize=16;fontColor=#FF0080;" parent="4DzWm4lysE0vdOQa_RRj-61" vertex="1" connectable="0">
          <mxGeometry x="-0.1589" relative="1" as="geometry">
            <mxPoint x="81" as="offset" />
          </mxGeometry>
        </mxCell>
        <mxCell id="4DzWm4lysE0vdOQa_RRj-17" value="OA系统" style="text;html=1;resizable=0;autosize=1;align=center;verticalAlign=middle;points=[];fillColor=none;strokeColor=none;rounded=0;shadow=0;glass=0;dashed=1;sketch=0;strokeWidth=1;fontSize=16;" parent="WIyWlLk6GJQsqaUBKTNV-1" vertex="1">
          <mxGeometry x="725" y="96" width="80" height="30" as="geometry" />
        </mxCell>
        <mxCell id="4DzWm4lysE0vdOQa_RRj-24" value="SyncNoticeIcsCreateInfo" style="shape=umlLifeline;perimeter=lifelinePerimeter;whiteSpace=wrap;html=1;container=1;collapsible=0;recursiveResize=0;outlineConnect=0;fontSize=16;fillColor=#fff2cc;strokeColor=#d6b656;" parent="WIyWlLk6GJQsqaUBKTNV-1" vertex="1">
          <mxGeometry x="915" y="136" width="190" height="920" as="geometry" />
        </mxCell>
        <mxCell id="4DzWm4lysE0vdOQa_RRj-27" value="" style="endArrow=classic;html=1;rounded=0;fontSize=16;fillColor=#d5e8d4;strokeColor=#FF0000;entryX=-0.44;entryY=0.263;entryDx=0;entryDy=0;entryPerimeter=0;" parent="4DzWm4lysE0vdOQa_RRj-24" target="4DzWm4lysE0vdOQa_RRj-25" edge="1">
          <mxGeometry width="50" height="50" relative="1" as="geometry">
            <mxPoint x="-570" y="530" as="sourcePoint" />
            <mxPoint x="80" y="530" as="targetPoint" />
          </mxGeometry>
        </mxCell>
        <mxCell id="4DzWm4lysE0vdOQa_RRj-28" value="放入队列" style="edgeLabel;html=1;align=center;verticalAlign=middle;resizable=0;points=[];fontSize=16;fontColor=#FF0000;" parent="4DzWm4lysE0vdOQa_RRj-27" vertex="1" connectable="0">
          <mxGeometry x="-0.1589" relative="1" as="geometry">
            <mxPoint x="271" as="offset" />
          </mxGeometry>
        </mxCell>
        <mxCell id="4DzWm4lysE0vdOQa_RRj-25" value="" style="html=1;points=[];perimeter=orthogonalPerimeter;fontSize=16;" parent="4DzWm4lysE0vdOQa_RRj-24" vertex="1">
          <mxGeometry x="90" y="510" width="10" height="80" as="geometry" />
        </mxCell>
        <mxCell id="4DzWm4lysE0vdOQa_RRj-26" value="消息服务" style="text;html=1;resizable=0;autosize=1;align=center;verticalAlign=middle;points=[];fillColor=none;strokeColor=none;rounded=0;shadow=0;glass=0;dashed=1;sketch=0;strokeWidth=1;fontSize=16;" parent="WIyWlLk6GJQsqaUBKTNV-1" vertex="1">
          <mxGeometry x="965" y="96" width="90" height="30" as="geometry" />
        </mxCell>
        <mxCell id="jtnJoueFRdmFTBYiuz7o-1" value="&lt;font color=&quot;#ff8000&quot;&gt;创建失败后补偿机制&lt;/font&gt;" style="text;html=1;align=center;verticalAlign=middle;resizable=0;points=[];autosize=1;strokeColor=none;fillColor=none;fontSize=16;fontColor=#009900;" parent="WIyWlLk6GJQsqaUBKTNV-1" vertex="1">
          <mxGeometry x="555" y="826" width="170" height="30" as="geometry" />
        </mxCell>
        <mxCell id="t1GNIMBtBUvskUs3lqvS-0" value="" style="html=1;points=[];perimeter=orthogonalPerimeter;fontSize=16;" parent="WIyWlLk6GJQsqaUBKTNV-1" vertex="1">
          <mxGeometry x="350" y="556" width="10" height="60" as="geometry" />
        </mxCell>
        <mxCell id="t1GNIMBtBUvskUs3lqvS-1" value="&lt;font color=&quot;#009900&quot;&gt;关键数据落库&lt;/font&gt;" style="edgeStyle=orthogonalEdgeStyle;html=1;align=left;spacingLeft=2;endArrow=block;rounded=0;entryX=1;entryY=0;strokeColor=#000000;fontSize=16;fontColor=#000000;" parent="WIyWlLk6GJQsqaUBKTNV-1" edge="1">
          <mxGeometry relative="1" as="geometry">
            <mxPoint x="355" y="516" as="sourcePoint" />
            <Array as="points">
              <mxPoint x="360" y="516" />
              <mxPoint x="390" y="516" />
              <mxPoint x="390" y="566" />
            </Array>
            <mxPoint x="365" y="566" as="targetPoint" />
          </mxGeometry>
        </mxCell>
      </root>
    </mxGraphModel>
  </diagram>
  <diagram id="EaZ4Q-BoqmB9A9BNH0J1" name="ICS工单修改及回复">
    <mxGraphModel dx="1050" dy="549" grid="1" gridSize="10" guides="1" tooltips="1" connect="1" arrows="1" fold="1" page="1" pageScale="1" pageWidth="1169" pageHeight="1654" math="0" shadow="0">
      <root>
        <mxCell id="0" />
        <mxCell id="1" parent="0" />
        <mxCell id="o03yFvGd-7qTuOWbdj1A-1" value="ICSController" style="shape=umlLifeline;perimeter=lifelinePerimeter;whiteSpace=wrap;html=1;container=1;collapsible=0;recursiveResize=0;outlineConnect=0;fontSize=16;fillColor=#dae8fc;strokeColor=#6c8ebf;" parent="1" vertex="1">
          <mxGeometry x="66" y="135" width="140" height="1030" as="geometry" />
        </mxCell>
        <mxCell id="o03yFvGd-7qTuOWbdj1A-2" value="" style="html=1;points=[];perimeter=orthogonalPerimeter;fontSize=16;" parent="o03yFvGd-7qTuOWbdj1A-1" vertex="1">
          <mxGeometry x="65" y="90" width="10" height="670" as="geometry" />
        </mxCell>
        <mxCell id="o03yFvGd-7qTuOWbdj1A-3" value="" style="html=1;points=[];perimeter=orthogonalPerimeter;fontSize=16;" parent="o03yFvGd-7qTuOWbdj1A-1" vertex="1">
          <mxGeometry x="65" y="804" width="10" height="130" as="geometry" />
        </mxCell>
        <mxCell id="o03yFvGd-7qTuOWbdj1A-4" value="" style="endArrow=classic;html=1;rounded=0;fontSize=16;fillColor=#FF8000;strokeColor=#000000;" parent="o03yFvGd-7qTuOWbdj1A-1" edge="1">
          <mxGeometry width="50" height="50" relative="1" as="geometry">
            <mxPoint x="75" y="864" as="sourcePoint" />
            <mxPoint x="274.5" y="864" as="targetPoint" />
          </mxGeometry>
        </mxCell>
        <mxCell id="o03yFvGd-7qTuOWbdj1A-5" value="更新工单" style="edgeLabel;html=1;align=center;verticalAlign=middle;resizable=0;points=[];fontSize=16;" parent="o03yFvGd-7qTuOWbdj1A-4" vertex="1" connectable="0">
          <mxGeometry x="-0.1589" relative="1" as="geometry">
            <mxPoint as="offset" />
          </mxGeometry>
        </mxCell>
        <mxCell id="o03yFvGd-7qTuOWbdj1A-6" value="IcsService" style="shape=umlLifeline;perimeter=lifelinePerimeter;whiteSpace=wrap;html=1;container=1;collapsible=0;recursiveResize=0;outlineConnect=0;fontSize=16;fillColor=#ffe6cc;strokeColor=#d79b00;" parent="1" vertex="1">
          <mxGeometry x="266" y="135" width="160" height="1030" as="geometry" />
        </mxCell>
        <mxCell id="o03yFvGd-7qTuOWbdj1A-7" value="" style="html=1;points=[];perimeter=orthogonalPerimeter;fontSize=16;" parent="o03yFvGd-7qTuOWbdj1A-6" vertex="1">
          <mxGeometry x="75" y="93" width="10" height="667" as="geometry" />
        </mxCell>
        <mxCell id="o03yFvGd-7qTuOWbdj1A-8" value="更新成功" style="text;html=1;align=center;verticalAlign=middle;resizable=0;points=[];autosize=1;strokeColor=none;fillColor=none;fontSize=16;fontColor=#009900;" parent="o03yFvGd-7qTuOWbdj1A-6" vertex="1">
          <mxGeometry x="-15" y="240" width="90" height="30" as="geometry" />
        </mxCell>
        <mxCell id="o03yFvGd-7qTuOWbdj1A-9" value="&lt;font color=&quot;#ff0000&quot;&gt;更新失败&lt;/font&gt;" style="text;html=1;align=center;verticalAlign=middle;resizable=0;points=[];autosize=1;strokeColor=none;fillColor=none;fontSize=16;fontColor=#009900;" parent="o03yFvGd-7qTuOWbdj1A-6" vertex="1">
          <mxGeometry x="-10" y="606" width="90" height="30" as="geometry" />
        </mxCell>
        <mxCell id="o03yFvGd-7qTuOWbdj1A-10" value="" style="endArrow=classic;html=1;rounded=0;fontSize=16;strokeColor=#000000;" parent="o03yFvGd-7qTuOWbdj1A-6" edge="1">
          <mxGeometry width="50" height="50" relative="1" as="geometry">
            <mxPoint x="70" y="740" as="sourcePoint" />
            <mxPoint x="-110" y="740" as="targetPoint" />
          </mxGeometry>
        </mxCell>
        <mxCell id="o03yFvGd-7qTuOWbdj1A-11" value="返回结果" style="edgeLabel;html=1;align=center;verticalAlign=middle;resizable=0;points=[];fontSize=16;" parent="o03yFvGd-7qTuOWbdj1A-10" vertex="1" connectable="0">
          <mxGeometry x="-0.1589" relative="1" as="geometry">
            <mxPoint x="-14" as="offset" />
          </mxGeometry>
        </mxCell>
        <mxCell id="o03yFvGd-7qTuOWbdj1A-12" value="" style="html=1;points=[];perimeter=orthogonalPerimeter;fontSize=16;" parent="o03yFvGd-7qTuOWbdj1A-6" vertex="1">
          <mxGeometry x="75" y="851" width="10" height="83" as="geometry" />
        </mxCell>
        <mxCell id="o03yFvGd-7qTuOWbdj1A-13" value="" style="endArrow=classic;html=1;rounded=0;fontSize=16;strokeColor=#000000;" parent="o03yFvGd-7qTuOWbdj1A-6" edge="1">
          <mxGeometry width="50" height="50" relative="1" as="geometry">
            <mxPoint x="70" y="914" as="sourcePoint" />
            <mxPoint x="-120" y="914" as="targetPoint" />
          </mxGeometry>
        </mxCell>
        <mxCell id="o03yFvGd-7qTuOWbdj1A-14" value="返回结果" style="edgeLabel;html=1;align=center;verticalAlign=middle;resizable=0;points=[];fontSize=16;" parent="o03yFvGd-7qTuOWbdj1A-13" vertex="1" connectable="0">
          <mxGeometry x="-0.1589" relative="1" as="geometry">
            <mxPoint x="-14" as="offset" />
          </mxGeometry>
        </mxCell>
        <mxCell id="YdCqli4lpfFsrHVWfLdx-4" value="更新表单数据" style="edgeStyle=orthogonalEdgeStyle;html=1;align=left;spacingLeft=2;endArrow=block;rounded=0;entryX=1;entryY=0;strokeColor=#000000;fontSize=16;fontColor=#000000;" parent="o03yFvGd-7qTuOWbdj1A-6" edge="1">
          <mxGeometry relative="1" as="geometry">
            <mxPoint x="90" y="130" as="sourcePoint" />
            <Array as="points">
              <mxPoint x="95" y="130" />
              <mxPoint x="125" y="130" />
              <mxPoint x="125" y="180" />
            </Array>
            <mxPoint x="100" y="180" as="targetPoint" />
          </mxGeometry>
        </mxCell>
        <mxCell id="YdCqli4lpfFsrHVWfLdx-5" value="" style="html=1;points=[];perimeter=orthogonalPerimeter;fontSize=16;" parent="o03yFvGd-7qTuOWbdj1A-6" vertex="1">
          <mxGeometry x="85" y="170" width="10" height="60" as="geometry" />
        </mxCell>
        <mxCell id="o03yFvGd-7qTuOWbdj1A-28" value="" style="endArrow=classic;html=1;rounded=0;fontSize=16;entryX=-0.28;entryY=0.675;entryDx=0;entryDy=0;entryPerimeter=0;fillColor=#d5e8d4;strokeColor=#009900;" parent="o03yFvGd-7qTuOWbdj1A-6" edge="1">
          <mxGeometry width="50" height="50" relative="1" as="geometry">
            <mxPoint x="85" y="260" as="sourcePoint" />
            <mxPoint x="502.20000000000005" y="261" as="targetPoint" />
          </mxGeometry>
        </mxCell>
        <mxCell id="o03yFvGd-7qTuOWbdj1A-29" value="修改事件" style="edgeLabel;html=1;align=center;verticalAlign=middle;resizable=0;points=[];fontSize=16;fontColor=#009900;" parent="o03yFvGd-7qTuOWbdj1A-28" vertex="1" connectable="0">
          <mxGeometry x="-0.1589" relative="1" as="geometry">
            <mxPoint x="-45" as="offset" />
          </mxGeometry>
        </mxCell>
        <mxCell id="YdCqli4lpfFsrHVWfLdx-6" value="" style="html=1;points=[];perimeter=orthogonalPerimeter;fontSize=16;" parent="o03yFvGd-7qTuOWbdj1A-6" vertex="1">
          <mxGeometry x="85" y="250" width="10" height="90" as="geometry" />
        </mxCell>
        <mxCell id="YdCqli4lpfFsrHVWfLdx-7" value="&lt;font color=&quot;#009900&quot;&gt;回复事件，节点实时流转&lt;/font&gt;" style="edgeStyle=orthogonalEdgeStyle;html=1;align=left;spacingLeft=2;endArrow=block;rounded=0;strokeColor=#000000;fontSize=16;fontColor=#000000;" parent="o03yFvGd-7qTuOWbdj1A-6" edge="1">
          <mxGeometry relative="1" as="geometry">
            <mxPoint x="96" y="280" as="sourcePoint" />
            <Array as="points">
              <mxPoint x="101" y="280" />
              <mxPoint x="131" y="280" />
              <mxPoint x="131" y="330" />
            </Array>
            <mxPoint x="96" y="330" as="targetPoint" />
          </mxGeometry>
        </mxCell>
        <mxCell id="DyrERW68iz-Z_wDyBWKE-1" value="&lt;font color=&quot;#009900&quot;&gt;更新签字意见&lt;/font&gt;" style="edgeStyle=orthogonalEdgeStyle;html=1;align=left;spacingLeft=2;endArrow=block;rounded=0;entryX=1;entryY=0;strokeColor=#000000;fontSize=16;fontColor=#000000;" parent="o03yFvGd-7qTuOWbdj1A-6" edge="1">
          <mxGeometry relative="1" as="geometry">
            <mxPoint x="85" y="378" as="sourcePoint" />
            <Array as="points">
              <mxPoint x="90" y="378" />
              <mxPoint x="120" y="378" />
              <mxPoint x="120" y="428" />
            </Array>
            <mxPoint x="95" y="428" as="targetPoint" />
          </mxGeometry>
        </mxCell>
        <mxCell id="DyrERW68iz-Z_wDyBWKE-3" value="" style="html=1;points=[];perimeter=orthogonalPerimeter;fontSize=16;" parent="o03yFvGd-7qTuOWbdj1A-6" vertex="1">
          <mxGeometry x="85" y="418" width="10" height="60" as="geometry" />
        </mxCell>
        <mxCell id="DyrERW68iz-Z_wDyBWKE-4" value="&lt;font color=&quot;#009900&quot;&gt;变更关键数据&lt;/font&gt;" style="edgeStyle=orthogonalEdgeStyle;html=1;align=left;spacingLeft=2;endArrow=block;rounded=0;entryX=1;entryY=0;strokeColor=#000000;fontSize=16;fontColor=#000000;" parent="o03yFvGd-7qTuOWbdj1A-6" edge="1">
          <mxGeometry relative="1" as="geometry">
            <mxPoint x="85" y="493" as="sourcePoint" />
            <Array as="points">
              <mxPoint x="90" y="493" />
              <mxPoint x="120" y="493" />
              <mxPoint x="120" y="543" />
            </Array>
            <mxPoint x="95" y="543" as="targetPoint" />
          </mxGeometry>
        </mxCell>
        <mxCell id="DyrERW68iz-Z_wDyBWKE-5" value="" style="html=1;points=[];perimeter=orthogonalPerimeter;fontSize=16;" parent="o03yFvGd-7qTuOWbdj1A-6" vertex="1">
          <mxGeometry x="85" y="533" width="10" height="60" as="geometry" />
        </mxCell>
        <mxCell id="o03yFvGd-7qTuOWbdj1A-24" value="ICS" style="shape=umlLifeline;perimeter=lifelinePerimeter;whiteSpace=wrap;html=1;container=1;collapsible=0;recursiveResize=0;outlineConnect=0;fontSize=16;fillColor=#f8cecc;strokeColor=#b85450;" parent="1" vertex="1">
          <mxGeometry x="476" y="135" width="140" height="920" as="geometry" />
        </mxCell>
        <mxCell id="o03yFvGd-7qTuOWbdj1A-36" value="" style="html=1;points=[];perimeter=orthogonalPerimeter;fontSize=16;" parent="o03yFvGd-7qTuOWbdj1A-24" vertex="1">
          <mxGeometry x="65" y="656" width="10" height="60" as="geometry" />
        </mxCell>
        <mxCell id="o03yFvGd-7qTuOWbdj1A-37" value="" style="html=1;points=[];perimeter=orthogonalPerimeter;fontSize=16;" parent="o03yFvGd-7qTuOWbdj1A-24" vertex="1">
          <mxGeometry x="65" y="804" width="10" height="90" as="geometry" />
        </mxCell>
        <mxCell id="o03yFvGd-7qTuOWbdj1A-38" value="" style="endArrow=classic;html=1;rounded=0;fontSize=16;strokeColor=#FF8000;" parent="o03yFvGd-7qTuOWbdj1A-24" edge="1">
          <mxGeometry width="50" height="50" relative="1" as="geometry">
            <mxPoint x="60" y="819" as="sourcePoint" />
            <mxPoint x="-330" y="819" as="targetPoint" />
          </mxGeometry>
        </mxCell>
        <mxCell id="o03yFvGd-7qTuOWbdj1A-39" value="&lt;font color=&quot;#ff8000&quot;&gt;1.更新表单数据补偿&lt;/font&gt;" style="edgeLabel;html=1;align=center;verticalAlign=middle;resizable=0;points=[];fontSize=16;" parent="o03yFvGd-7qTuOWbdj1A-38" vertex="1" connectable="0">
          <mxGeometry x="-0.1589" relative="1" as="geometry">
            <mxPoint x="-14" as="offset" />
          </mxGeometry>
        </mxCell>
        <mxCell id="o03yFvGd-7qTuOWbdj1A-40" value="" style="endArrow=classic;html=1;rounded=0;fontSize=16;" parent="1" target="o03yFvGd-7qTuOWbdj1A-6" edge="1">
          <mxGeometry width="50" height="50" relative="1" as="geometry">
            <mxPoint x="146" y="245" as="sourcePoint" />
            <mxPoint x="226" y="245" as="targetPoint" />
          </mxGeometry>
        </mxCell>
        <mxCell id="o03yFvGd-7qTuOWbdj1A-41" value="更新工单" style="edgeLabel;html=1;align=center;verticalAlign=middle;resizable=0;points=[];fontSize=16;" parent="o03yFvGd-7qTuOWbdj1A-40" vertex="1" connectable="0">
          <mxGeometry x="-0.1589" relative="1" as="geometry">
            <mxPoint as="offset" />
          </mxGeometry>
        </mxCell>
        <mxCell id="o03yFvGd-7qTuOWbdj1A-42" value="中间应用服务" style="text;html=1;resizable=0;autosize=1;align=center;verticalAlign=middle;points=[];fillColor=none;strokeColor=none;rounded=0;shadow=0;glass=0;dashed=1;sketch=0;strokeWidth=1;fontSize=16;" parent="1" vertex="1">
          <mxGeometry x="81" y="95" width="120" height="30" as="geometry" />
        </mxCell>
        <mxCell id="o03yFvGd-7qTuOWbdj1A-43" value="OA系统" style="text;html=1;resizable=0;autosize=1;align=center;verticalAlign=middle;points=[];fillColor=none;strokeColor=none;rounded=0;shadow=0;glass=0;dashed=1;sketch=0;strokeWidth=1;fontSize=16;" parent="1" vertex="1">
          <mxGeometry x="301" y="95" width="80" height="30" as="geometry" />
        </mxCell>
        <mxCell id="o03yFvGd-7qTuOWbdj1A-44" value="ICS系统" style="text;html=1;resizable=0;autosize=1;align=center;verticalAlign=middle;points=[];fillColor=none;strokeColor=none;rounded=0;shadow=0;glass=0;dashed=1;sketch=0;strokeWidth=1;fontSize=16;" parent="1" vertex="1">
          <mxGeometry x="506" y="95" width="80" height="30" as="geometry" />
        </mxCell>
        <mxCell id="o03yFvGd-7qTuOWbdj1A-45" value="TransferIcsTicketService" style="shape=umlLifeline;perimeter=lifelinePerimeter;whiteSpace=wrap;html=1;container=1;collapsible=0;recursiveResize=0;outlineConnect=0;fontSize=16;fillColor=#ffe6cc;strokeColor=#d79b00;" parent="1" vertex="1">
          <mxGeometry x="676" y="135" width="190" height="920" as="geometry" />
        </mxCell>
        <mxCell id="o03yFvGd-7qTuOWbdj1A-46" value="&lt;div class=&quot;lake-content&quot;&gt;&lt;span class=&quot;ne-text&quot;&gt;SyncSubmitIcsNodeInfo&lt;/span&gt;&lt;/div&gt;" style="shape=umlLifeline;perimeter=lifelinePerimeter;whiteSpace=wrap;html=1;container=1;collapsible=0;recursiveResize=0;outlineConnect=0;fontSize=16;fillColor=#ffe6cc;strokeColor=#d79b00;" parent="o03yFvGd-7qTuOWbdj1A-45" vertex="1">
          <mxGeometry width="190" height="920" as="geometry" />
        </mxCell>
        <mxCell id="o03yFvGd-7qTuOWbdj1A-47" value="" style="html=1;points=[];perimeter=orthogonalPerimeter;fontSize=16;" parent="o03yFvGd-7qTuOWbdj1A-46" vertex="1">
          <mxGeometry x="90" y="240" width="10" height="220" as="geometry" />
        </mxCell>
        <mxCell id="o03yFvGd-7qTuOWbdj1A-48" value="" style="html=1;points=[];perimeter=orthogonalPerimeter;fontSize=16;fontColor=#000000;" parent="o03yFvGd-7qTuOWbdj1A-46" vertex="1">
          <mxGeometry x="80" y="350" width="10" height="70" as="geometry" />
        </mxCell>
        <mxCell id="o03yFvGd-7qTuOWbdj1A-49" value="&lt;font color=&quot;#ff8000&quot;&gt;节点5分钟后流转&lt;/font&gt;" style="edgeStyle=orthogonalEdgeStyle;html=1;align=left;spacingLeft=2;endArrow=block;rounded=0;strokeColor=#FF0000;fontSize=16;fontColor=#000000;" parent="o03yFvGd-7qTuOWbdj1A-46" edge="1">
          <mxGeometry x="0.0164" y="-70" relative="1" as="geometry">
            <mxPoint x="87" y="295" as="sourcePoint" />
            <Array as="points">
              <mxPoint x="50" y="295" />
              <mxPoint x="50" y="350" />
            </Array>
            <mxPoint x="80" y="350" as="targetPoint" />
            <mxPoint as="offset" />
          </mxGeometry>
        </mxCell>
        <mxCell id="o03yFvGd-7qTuOWbdj1A-52" value="" style="endArrow=classic;html=1;rounded=0;fontSize=16;strokeColor=#FF0080;" parent="o03yFvGd-7qTuOWbdj1A-46" edge="1">
          <mxGeometry width="50" height="50" relative="1" as="geometry">
            <mxPoint x="340" y="666" as="sourcePoint" />
            <mxPoint x="-125" y="666" as="targetPoint" />
          </mxGeometry>
        </mxCell>
        <mxCell id="o03yFvGd-7qTuOWbdj1A-53" value="&lt;font&gt;消息通知&lt;/font&gt;" style="edgeLabel;html=1;align=center;verticalAlign=middle;resizable=0;points=[];fontSize=16;fontColor=#FF0080;" parent="o03yFvGd-7qTuOWbdj1A-52" vertex="1" connectable="0">
          <mxGeometry x="-0.1589" relative="1" as="geometry">
            <mxPoint x="81" as="offset" />
          </mxGeometry>
        </mxCell>
        <mxCell id="YdCqli4lpfFsrHVWfLdx-9" value="&lt;font color=&quot;#ff8000&quot;&gt;延迟队列&lt;/font&gt;" style="edgeLabel;html=1;align=center;verticalAlign=middle;resizable=0;points=[];fontSize=16;fontColor=#FF0000;" parent="o03yFvGd-7qTuOWbdj1A-46" vertex="1" connectable="0">
          <mxGeometry x="139.99965273016915" y="249.99782739298263" as="geometry" />
        </mxCell>
        <mxCell id="o03yFvGd-7qTuOWbdj1A-54" value="OA系统" style="text;html=1;resizable=0;autosize=1;align=center;verticalAlign=middle;points=[];fillColor=none;strokeColor=none;rounded=0;shadow=0;glass=0;dashed=1;sketch=0;strokeWidth=1;fontSize=16;" parent="1" vertex="1">
          <mxGeometry x="726" y="95" width="80" height="30" as="geometry" />
        </mxCell>
        <mxCell id="o03yFvGd-7qTuOWbdj1A-55" value="&lt;div class=&quot;lake-content&quot;&gt;&lt;span class=&quot;ne-text&quot;&gt;SyncNoticeIcsUpdateInfo&lt;/span&gt;&lt;/div&gt;" style="shape=umlLifeline;perimeter=lifelinePerimeter;whiteSpace=wrap;html=1;container=1;collapsible=0;recursiveResize=0;outlineConnect=0;fontSize=16;fillColor=#fff2cc;strokeColor=#d6b656;" parent="1" vertex="1">
          <mxGeometry x="916" y="135" width="190" height="920" as="geometry" />
        </mxCell>
        <mxCell id="o03yFvGd-7qTuOWbdj1A-56" value="" style="endArrow=classic;html=1;rounded=0;fontSize=16;fillColor=#d5e8d4;strokeColor=#FF0000;entryX=-0.44;entryY=0.263;entryDx=0;entryDy=0;entryPerimeter=0;" parent="o03yFvGd-7qTuOWbdj1A-55" target="o03yFvGd-7qTuOWbdj1A-58" edge="1">
          <mxGeometry width="50" height="50" relative="1" as="geometry">
            <mxPoint x="-570" y="626" as="sourcePoint" />
            <mxPoint x="80" y="626" as="targetPoint" />
          </mxGeometry>
        </mxCell>
        <mxCell id="o03yFvGd-7qTuOWbdj1A-57" value="放入队列" style="edgeLabel;html=1;align=center;verticalAlign=middle;resizable=0;points=[];fontSize=16;fontColor=#FF0000;" parent="o03yFvGd-7qTuOWbdj1A-56" vertex="1" connectable="0">
          <mxGeometry x="-0.1589" relative="1" as="geometry">
            <mxPoint x="271" as="offset" />
          </mxGeometry>
        </mxCell>
        <mxCell id="o03yFvGd-7qTuOWbdj1A-58" value="" style="html=1;points=[];perimeter=orthogonalPerimeter;fontSize=16;" parent="o03yFvGd-7qTuOWbdj1A-55" vertex="1">
          <mxGeometry x="90" y="606" width="10" height="80" as="geometry" />
        </mxCell>
        <mxCell id="YdCqli4lpfFsrHVWfLdx-12" value="通知队列" style="edgeLabel;html=1;align=center;verticalAlign=middle;resizable=0;points=[];fontSize=16;fontColor=#FF0000;" parent="o03yFvGd-7qTuOWbdj1A-55" vertex="1" connectable="0">
          <mxGeometry x="139.99965273016915" y="615.9978273929826" as="geometry" />
        </mxCell>
        <mxCell id="o03yFvGd-7qTuOWbdj1A-59" value="消息服务" style="text;html=1;resizable=0;autosize=1;align=center;verticalAlign=middle;points=[];fillColor=none;strokeColor=none;rounded=0;shadow=0;glass=0;dashed=1;sketch=0;strokeWidth=1;fontSize=16;" parent="1" vertex="1">
          <mxGeometry x="966" y="95" width="90" height="30" as="geometry" />
        </mxCell>
        <mxCell id="o03yFvGd-7qTuOWbdj1A-60" value="&lt;font color=&quot;#ff8000&quot;&gt;更新失败后补偿机制&lt;/font&gt;" style="text;html=1;align=center;verticalAlign=middle;resizable=0;points=[];autosize=1;strokeColor=none;fillColor=none;fontSize=16;fontColor=#009900;" parent="1" vertex="1">
          <mxGeometry x="556" y="929" width="170" height="30" as="geometry" />
        </mxCell>
      </root>
    </mxGraphModel>
  </diagram>
  <diagram id="NyWd_kbMMaT8fUSmY85_" name="节点监控及工单转交">
    <mxGraphModel dx="1050" dy="549" grid="1" gridSize="10" guides="1" tooltips="1" connect="1" arrows="1" fold="1" page="1" pageScale="1" pageWidth="1169" pageHeight="1654" math="0" shadow="0">
      <root>
        <mxCell id="0" />
        <mxCell id="1" parent="0" />
        <mxCell id="RcKFZ1haMxc2b1jPkZKI-1" value="SyncUpdateIcsNodeInfoV2" style="shape=umlLifeline;perimeter=lifelinePerimeter;whiteSpace=wrap;html=1;container=1;collapsible=0;recursiveResize=0;outlineConnect=0;fontSize=16;fillColor=#ffe6cc;strokeColor=#d79b00;" parent="1" vertex="1">
          <mxGeometry x="50" y="135" width="204" height="1020" as="geometry" />
        </mxCell>
        <mxCell id="RcKFZ1haMxc2b1jPkZKI-2" value="" style="html=1;points=[];perimeter=orthogonalPerimeter;fontSize=16;" parent="RcKFZ1haMxc2b1jPkZKI-1" vertex="1">
          <mxGeometry x="97" y="90" width="10" height="670" as="geometry" />
        </mxCell>
        <mxCell id="RcKFZ1haMxc2b1jPkZKI-15" value="获取未完结工单" style="edgeStyle=orthogonalEdgeStyle;html=1;align=left;spacingLeft=2;endArrow=block;rounded=0;entryX=1;entryY=0;strokeColor=#000000;fontSize=16;fontColor=#000000;" parent="RcKFZ1haMxc2b1jPkZKI-1" edge="1">
          <mxGeometry relative="1" as="geometry">
            <mxPoint x="112" y="105" as="sourcePoint" />
            <Array as="points">
              <mxPoint x="117" y="105" />
              <mxPoint x="147" y="105" />
              <mxPoint x="147" y="155" />
            </Array>
            <mxPoint x="122" y="155" as="targetPoint" />
          </mxGeometry>
        </mxCell>
        <mxCell id="RcKFZ1haMxc2b1jPkZKI-16" value="" style="html=1;points=[];perimeter=orthogonalPerimeter;fontSize=16;" parent="RcKFZ1haMxc2b1jPkZKI-1" vertex="1">
          <mxGeometry x="107" y="145" width="10" height="60" as="geometry" />
        </mxCell>
        <mxCell id="RcKFZ1haMxc2b1jPkZKI-51" value="获取未完结工单" style="edgeStyle=orthogonalEdgeStyle;html=1;align=left;spacingLeft=2;endArrow=block;rounded=0;entryX=1;entryY=0;strokeColor=#000000;fontSize=16;fontColor=#000000;" parent="RcKFZ1haMxc2b1jPkZKI-1" edge="1">
          <mxGeometry relative="1" as="geometry">
            <mxPoint x="112" y="105" as="sourcePoint" />
            <Array as="points">
              <mxPoint x="117" y="105" />
              <mxPoint x="147" y="105" />
              <mxPoint x="147" y="155" />
            </Array>
            <mxPoint x="122" y="155" as="targetPoint" />
          </mxGeometry>
        </mxCell>
        <mxCell id="RcKFZ1haMxc2b1jPkZKI-52" value="" style="html=1;points=[];perimeter=orthogonalPerimeter;fontSize=16;" parent="RcKFZ1haMxc2b1jPkZKI-1" vertex="1">
          <mxGeometry x="107" y="265" width="10" height="60" as="geometry" />
        </mxCell>
        <mxCell id="RcKFZ1haMxc2b1jPkZKI-53" value="监控节点是否变更" style="edgeStyle=orthogonalEdgeStyle;html=1;align=left;spacingLeft=2;endArrow=block;rounded=0;entryX=1;entryY=0;strokeColor=#000000;fontSize=16;fontColor=#000000;" parent="RcKFZ1haMxc2b1jPkZKI-1" edge="1">
          <mxGeometry relative="1" as="geometry">
            <mxPoint x="112" y="225" as="sourcePoint" />
            <Array as="points">
              <mxPoint x="117" y="225" />
              <mxPoint x="147" y="225" />
              <mxPoint x="147" y="275" />
            </Array>
            <mxPoint x="122" y="275" as="targetPoint" />
          </mxGeometry>
        </mxCell>
        <mxCell id="RcKFZ1haMxc2b1jPkZKI-54" value="监控节点是否变更" style="edgeStyle=orthogonalEdgeStyle;html=1;align=left;spacingLeft=2;endArrow=block;rounded=0;entryX=1;entryY=0;strokeColor=#000000;fontSize=16;fontColor=#000000;" parent="RcKFZ1haMxc2b1jPkZKI-1" edge="1">
          <mxGeometry relative="1" as="geometry">
            <mxPoint x="112" y="225" as="sourcePoint" />
            <Array as="points">
              <mxPoint x="117" y="225" />
              <mxPoint x="147" y="225" />
              <mxPoint x="147" y="275" />
            </Array>
            <mxPoint x="122" y="275" as="targetPoint" />
          </mxGeometry>
        </mxCell>
        <mxCell id="RcKFZ1haMxc2b1jPkZKI-55" value="变更库里节点信息" style="edgeStyle=orthogonalEdgeStyle;html=1;align=left;spacingLeft=2;endArrow=block;rounded=0;entryX=1;entryY=0;strokeColor=#000000;fontSize=16;fontColor=#000000;" parent="RcKFZ1haMxc2b1jPkZKI-1" edge="1">
          <mxGeometry relative="1" as="geometry">
            <mxPoint x="112" y="345" as="sourcePoint" />
            <Array as="points">
              <mxPoint x="117" y="345" />
              <mxPoint x="147" y="345" />
              <mxPoint x="147" y="395" />
            </Array>
            <mxPoint x="122" y="395" as="targetPoint" />
          </mxGeometry>
        </mxCell>
        <mxCell id="RcKFZ1haMxc2b1jPkZKI-56" value="" style="html=1;points=[];perimeter=orthogonalPerimeter;fontSize=16;" parent="RcKFZ1haMxc2b1jPkZKI-1" vertex="1">
          <mxGeometry x="107" y="385" width="10" height="60" as="geometry" />
        </mxCell>
        <mxCell id="RcKFZ1haMxc2b1jPkZKI-6" value="SyncUpdateIcsTicketInfo" style="shape=umlLifeline;perimeter=lifelinePerimeter;whiteSpace=wrap;html=1;container=1;collapsible=0;recursiveResize=0;outlineConnect=0;fontSize=16;fillColor=#ffe6cc;strokeColor=#d79b00;" parent="1" vertex="1">
          <mxGeometry x="294" y="135" width="186" height="1020" as="geometry" />
        </mxCell>
        <mxCell id="RcKFZ1haMxc2b1jPkZKI-7" value="" style="html=1;points=[];perimeter=orthogonalPerimeter;fontSize=16;" parent="RcKFZ1haMxc2b1jPkZKI-6" vertex="1">
          <mxGeometry x="88" y="460" width="10" height="292" as="geometry" />
        </mxCell>
        <mxCell id="RcKFZ1haMxc2b1jPkZKI-10" value="" style="endArrow=classic;html=1;rounded=0;fontSize=16;strokeColor=#000000;" parent="RcKFZ1haMxc2b1jPkZKI-6" edge="1">
          <mxGeometry width="50" height="50" relative="1" as="geometry">
            <mxPoint x="76" y="740" as="sourcePoint" />
            <mxPoint x="-134" y="740" as="targetPoint" />
          </mxGeometry>
        </mxCell>
        <mxCell id="RcKFZ1haMxc2b1jPkZKI-11" value="返回结果" style="edgeLabel;html=1;align=center;verticalAlign=middle;resizable=0;points=[];fontSize=16;" parent="RcKFZ1haMxc2b1jPkZKI-10" vertex="1" connectable="0">
          <mxGeometry x="-0.1589" relative="1" as="geometry">
            <mxPoint x="-14" as="offset" />
          </mxGeometry>
        </mxCell>
        <mxCell id="RcKFZ1haMxc2b1jPkZKI-17" value="" style="endArrow=classic;html=1;rounded=0;fontSize=16;fillColor=#d5e8d4;strokeColor=#FF0080;" parent="RcKFZ1haMxc2b1jPkZKI-6" edge="1">
          <mxGeometry width="50" height="50" relative="1" as="geometry">
            <mxPoint x="-134" y="474.5" as="sourcePoint" />
            <mxPoint x="86" y="475" as="targetPoint" />
          </mxGeometry>
        </mxCell>
        <mxCell id="RcKFZ1haMxc2b1jPkZKI-18" value="&lt;font color=&quot;#ff0080&quot;&gt;消息通知&lt;/font&gt;" style="edgeLabel;html=1;align=center;verticalAlign=middle;resizable=0;points=[];fontSize=16;fontColor=#009900;" parent="RcKFZ1haMxc2b1jPkZKI-17" vertex="1" connectable="0">
          <mxGeometry x="-0.1589" relative="1" as="geometry">
            <mxPoint x="18" as="offset" />
          </mxGeometry>
        </mxCell>
        <mxCell id="KVfL51wSrEzLZ2b-MY0j-38" value="" style="endArrow=classic;html=1;rounded=0;" parent="RcKFZ1haMxc2b1jPkZKI-6" edge="1">
          <mxGeometry width="50" height="50" relative="1" as="geometry">
            <mxPoint x="98" y="625" as="sourcePoint" />
            <mxPoint x="496" y="625" as="targetPoint" />
          </mxGeometry>
        </mxCell>
        <mxCell id="RcKFZ1haMxc2b1jPkZKI-25" value="ICS" style="shape=umlLifeline;perimeter=lifelinePerimeter;whiteSpace=wrap;html=1;container=1;collapsible=0;recursiveResize=0;outlineConnect=0;fontSize=16;fillColor=#f8cecc;strokeColor=#b85450;" parent="1" vertex="1">
          <mxGeometry x="520" y="135" width="140" height="1115" as="geometry" />
        </mxCell>
        <mxCell id="KVfL51wSrEzLZ2b-MY0j-26" value="" style="html=1;points=[];perimeter=orthogonalPerimeter;fontSize=16;" parent="RcKFZ1haMxc2b1jPkZKI-25" vertex="1">
          <mxGeometry x="65" y="686" width="10" height="60" as="geometry" />
        </mxCell>
        <mxCell id="KVfL51wSrEzLZ2b-MY0j-29" value="" style="html=1;points=[];perimeter=orthogonalPerimeter;fontSize=16;" parent="RcKFZ1haMxc2b1jPkZKI-25" vertex="1">
          <mxGeometry x="64.5" y="823" width="10" height="60" as="geometry" />
        </mxCell>
        <mxCell id="KVfL51wSrEzLZ2b-MY0j-55" value="" style="html=1;points=[];perimeter=orthogonalPerimeter;fontSize=16;" parent="RcKFZ1haMxc2b1jPkZKI-25" vertex="1">
          <mxGeometry x="65" y="495" width="10" height="75" as="geometry" />
        </mxCell>
        <mxCell id="KVfL51wSrEzLZ2b-MY0j-57" value="" style="endArrow=classic;html=1;rounded=0;fontSize=16;strokeColor=#FF0080;" parent="RcKFZ1haMxc2b1jPkZKI-25" edge="1">
          <mxGeometry width="50" height="50" relative="1" as="geometry">
            <mxPoint x="60" y="555" as="sourcePoint" />
            <mxPoint x="-120" y="555" as="targetPoint" />
          </mxGeometry>
        </mxCell>
        <mxCell id="KVfL51wSrEzLZ2b-MY0j-58" value="&lt;font color=&quot;#ff0080&quot;&gt;返回结果&lt;/font&gt;" style="edgeLabel;html=1;align=center;verticalAlign=middle;resizable=0;points=[];fontSize=16;" parent="KVfL51wSrEzLZ2b-MY0j-57" vertex="1" connectable="0">
          <mxGeometry x="-0.1589" relative="1" as="geometry">
            <mxPoint x="-14" as="offset" />
          </mxGeometry>
        </mxCell>
        <mxCell id="RcKFZ1haMxc2b1jPkZKI-32" value="OA系统" style="text;html=1;resizable=0;autosize=1;align=center;verticalAlign=middle;points=[];fillColor=none;strokeColor=none;rounded=0;shadow=0;glass=0;dashed=1;sketch=0;strokeWidth=1;fontSize=16;" parent="1" vertex="1">
          <mxGeometry x="112" y="95" width="80" height="30" as="geometry" />
        </mxCell>
        <mxCell id="RcKFZ1haMxc2b1jPkZKI-33" value="OA系统" style="text;html=1;resizable=0;autosize=1;align=center;verticalAlign=middle;points=[];fillColor=none;strokeColor=none;rounded=0;shadow=0;glass=0;dashed=1;sketch=0;strokeWidth=1;fontSize=16;" parent="1" vertex="1">
          <mxGeometry x="347" y="95" width="80" height="30" as="geometry" />
        </mxCell>
        <mxCell id="RcKFZ1haMxc2b1jPkZKI-34" value="ICS系统" style="text;html=1;resizable=0;autosize=1;align=center;verticalAlign=middle;points=[];fillColor=none;strokeColor=none;rounded=0;shadow=0;glass=0;dashed=1;sketch=0;strokeWidth=1;fontSize=16;" parent="1" vertex="1">
          <mxGeometry x="550" y="95" width="80" height="30" as="geometry" />
        </mxCell>
        <mxCell id="RcKFZ1haMxc2b1jPkZKI-35" value="TransferIcsTicketService" style="shape=umlLifeline;perimeter=lifelinePerimeter;whiteSpace=wrap;html=1;container=1;collapsible=0;recursiveResize=0;outlineConnect=0;fontSize=16;fillColor=#ffe6cc;strokeColor=#d79b00;" parent="1" vertex="1">
          <mxGeometry x="696" y="135" width="209" height="1110" as="geometry" />
        </mxCell>
        <mxCell id="RcKFZ1haMxc2b1jPkZKI-36" value="&lt;div class=&quot;lake-content&quot;&gt;&lt;span class=&quot;ne-text&quot;&gt;TransferIcsTicketService&lt;/span&gt;&lt;/div&gt;" style="shape=umlLifeline;perimeter=lifelinePerimeter;whiteSpace=wrap;html=1;container=1;collapsible=0;recursiveResize=0;outlineConnect=0;fontSize=16;fillColor=#ffe6cc;strokeColor=#d79b00;" parent="RcKFZ1haMxc2b1jPkZKI-35" vertex="1">
          <mxGeometry width="209" height="1110" as="geometry" />
        </mxCell>
        <mxCell id="KVfL51wSrEzLZ2b-MY0j-49" value="" style="endArrow=classic;html=1;rounded=0;dashed=1;strokeColor=#FF8000;" parent="RcKFZ1haMxc2b1jPkZKI-36" edge="1">
          <mxGeometry width="50" height="50" relative="1" as="geometry">
            <mxPoint x="-101" y="985" as="sourcePoint" />
            <mxPoint x="324" y="985" as="targetPoint" />
          </mxGeometry>
        </mxCell>
        <mxCell id="KVfL51wSrEzLZ2b-MY0j-50" value="&lt;font color=&quot;#ff8000&quot; style=&quot;font-size: 16px;&quot;&gt;返回结果&lt;/font&gt;" style="edgeLabel;html=1;align=center;verticalAlign=middle;resizable=0;points=[];" parent="KVfL51wSrEzLZ2b-MY0j-49" vertex="1" connectable="0">
          <mxGeometry x="0.1855" y="-3" relative="1" as="geometry">
            <mxPoint x="-157" y="-3" as="offset" />
          </mxGeometry>
        </mxCell>
        <mxCell id="KVfL51wSrEzLZ2b-MY0j-52" value="&lt;font color=&quot;#ff0080&quot; style=&quot;font-size: 16px;&quot;&gt;归档时完结&lt;/font&gt;" style="text;html=1;align=center;verticalAlign=middle;resizable=0;points=[];autosize=1;strokeColor=none;fillColor=none;" parent="RcKFZ1haMxc2b1jPkZKI-36" vertex="1">
          <mxGeometry x="116" y="875" width="100" height="30" as="geometry" />
        </mxCell>
        <mxCell id="RcKFZ1haMxc2b1jPkZKI-43" value="OA系统" style="text;html=1;resizable=0;autosize=1;align=center;verticalAlign=middle;points=[];fillColor=none;strokeColor=none;rounded=0;shadow=0;glass=0;dashed=1;sketch=0;strokeWidth=1;fontSize=16;" parent="1" vertex="1">
          <mxGeometry x="758.5" y="95" width="80" height="30" as="geometry" />
        </mxCell>
        <mxCell id="RcKFZ1haMxc2b1jPkZKI-44" value="&lt;div class=&quot;lake-content&quot;&gt;&lt;span class=&quot;ne-text&quot;&gt;FinishIcsTicketService&lt;/span&gt;&lt;/div&gt;" style="shape=umlLifeline;perimeter=lifelinePerimeter;whiteSpace=wrap;html=1;container=1;collapsible=0;recursiveResize=0;outlineConnect=0;fontSize=16;fillColor=#ffe6cc;strokeColor=#d79b00;" parent="1" vertex="1">
          <mxGeometry x="936" y="135" width="190" height="1115" as="geometry" />
        </mxCell>
        <mxCell id="RcKFZ1haMxc2b1jPkZKI-47" value="" style="html=1;points=[];perimeter=orthogonalPerimeter;fontSize=16;" parent="RcKFZ1haMxc2b1jPkZKI-44" vertex="1">
          <mxGeometry x="90" y="905" width="10" height="145" as="geometry" />
        </mxCell>
        <mxCell id="KVfL51wSrEzLZ2b-MY0j-40" value="" style="endArrow=classic;html=1;rounded=0;strokeColor=#FF8000;" parent="RcKFZ1haMxc2b1jPkZKI-44" edge="1">
          <mxGeometry width="50" height="50" relative="1" as="geometry">
            <mxPoint x="-140" y="915" as="sourcePoint" />
            <mxPoint x="84" y="915" as="targetPoint" />
          </mxGeometry>
        </mxCell>
        <mxCell id="KVfL51wSrEzLZ2b-MY0j-41" value="&lt;font color=&quot;#ff8000&quot; style=&quot;font-size: 16px;&quot;&gt;完结工单&lt;/font&gt;" style="edgeLabel;html=1;align=center;verticalAlign=middle;resizable=0;points=[];" parent="KVfL51wSrEzLZ2b-MY0j-40" vertex="1" connectable="0">
          <mxGeometry x="0.1855" y="-3" relative="1" as="geometry">
            <mxPoint x="-6" y="-3" as="offset" />
          </mxGeometry>
        </mxCell>
        <mxCell id="KVfL51wSrEzLZ2b-MY0j-44" value="" style="endArrow=classic;html=1;rounded=0;fontSize=16;strokeColor=#FF8000;" parent="RcKFZ1haMxc2b1jPkZKI-44" edge="1">
          <mxGeometry width="50" height="50" relative="1" as="geometry">
            <mxPoint x="84" y="1035" as="sourcePoint" />
            <mxPoint x="-126" y="1035" as="targetPoint" />
          </mxGeometry>
        </mxCell>
        <mxCell id="KVfL51wSrEzLZ2b-MY0j-45" value="&lt;font color=&quot;#ff8000&quot;&gt;返回结果&lt;/font&gt;" style="edgeLabel;html=1;align=center;verticalAlign=middle;resizable=0;points=[];fontSize=16;" parent="KVfL51wSrEzLZ2b-MY0j-44" vertex="1" connectable="0">
          <mxGeometry x="-0.1589" relative="1" as="geometry">
            <mxPoint x="-4" as="offset" />
          </mxGeometry>
        </mxCell>
        <mxCell id="KVfL51wSrEzLZ2b-MY0j-47" value="" style="endArrow=classic;html=1;rounded=0;fontSize=16;strokeColor=#FF8000;dashed=1;" parent="RcKFZ1haMxc2b1jPkZKI-44" edge="1">
          <mxGeometry width="50" height="50" relative="1" as="geometry">
            <mxPoint x="84" y="945" as="sourcePoint" />
            <mxPoint x="-336" y="945" as="targetPoint" />
          </mxGeometry>
        </mxCell>
        <mxCell id="KVfL51wSrEzLZ2b-MY0j-48" value="&lt;font color=&quot;#ff8000&quot;&gt;完结ICS工单&lt;/font&gt;" style="edgeLabel;html=1;align=center;verticalAlign=middle;resizable=0;points=[];fontSize=16;" parent="KVfL51wSrEzLZ2b-MY0j-47" vertex="1" connectable="0">
          <mxGeometry x="-0.1589" relative="1" as="geometry">
            <mxPoint x="-153" as="offset" />
          </mxGeometry>
        </mxCell>
        <mxCell id="RcKFZ1haMxc2b1jPkZKI-49" value="OA系统" style="text;html=1;resizable=0;autosize=1;align=center;verticalAlign=middle;points=[];fillColor=none;strokeColor=none;rounded=0;shadow=0;glass=0;dashed=1;sketch=0;strokeWidth=1;fontSize=16;" parent="1" vertex="1">
          <mxGeometry x="991" y="95" width="80" height="30" as="geometry" />
        </mxCell>
        <mxCell id="KVfL51wSrEzLZ2b-MY0j-25" value="转交工单" style="edgeLabel;html=1;align=center;verticalAlign=middle;resizable=0;points=[];fontSize=16;fontColor=#009900;" parent="1" vertex="1" connectable="0">
          <mxGeometry x="659.9994972899331" y="759.9994618822866" as="geometry" />
        </mxCell>
        <mxCell id="KVfL51wSrEzLZ2b-MY0j-27" value="" style="endArrow=classic;html=1;rounded=0;fontSize=16;strokeColor=#009900;exitX=-0.08;exitY=0.756;exitDx=0;exitDy=0;exitPerimeter=0;" parent="1" edge="1">
          <mxGeometry width="50" height="50" relative="1" as="geometry">
            <mxPoint x="786" y="828" as="sourcePoint" />
            <mxPoint x="600" y="828" as="targetPoint" />
          </mxGeometry>
        </mxCell>
        <mxCell id="KVfL51wSrEzLZ2b-MY0j-28" value="&lt;font color=&quot;#009900&quot;&gt;转交ICS工单&lt;/font&gt;" style="edgeLabel;html=1;align=center;verticalAlign=middle;resizable=0;points=[];fontSize=16;" parent="KVfL51wSrEzLZ2b-MY0j-27" vertex="1" connectable="0">
          <mxGeometry x="-0.1589" relative="1" as="geometry">
            <mxPoint x="-17" as="offset" />
          </mxGeometry>
        </mxCell>
        <mxCell id="KVfL51wSrEzLZ2b-MY0j-30" value="" style="endArrow=classic;html=1;rounded=0;fontSize=16;strokeColor=#009900;exitX=-0.08;exitY=0.756;exitDx=0;exitDy=0;exitPerimeter=0;" parent="1" edge="1">
          <mxGeometry width="50" height="50" relative="1" as="geometry">
            <mxPoint x="776" y="968" as="sourcePoint" />
            <mxPoint x="600" y="968" as="targetPoint" />
          </mxGeometry>
        </mxCell>
        <mxCell id="KVfL51wSrEzLZ2b-MY0j-31" value="&lt;font color=&quot;#009900&quot;&gt;转交ICS工单&lt;/font&gt;" style="edgeLabel;html=1;align=center;verticalAlign=middle;resizable=0;points=[];fontSize=16;" parent="KVfL51wSrEzLZ2b-MY0j-30" vertex="1" connectable="0">
          <mxGeometry x="-0.1589" relative="1" as="geometry">
            <mxPoint x="-17" as="offset" />
          </mxGeometry>
        </mxCell>
        <mxCell id="KVfL51wSrEzLZ2b-MY0j-32" value="" style="html=1;points=[];perimeter=orthogonalPerimeter;fontSize=16;" parent="1" vertex="1">
          <mxGeometry x="796" y="740" width="10" height="450" as="geometry" />
        </mxCell>
        <mxCell id="KVfL51wSrEzLZ2b-MY0j-33" value="" style="html=1;points=[];perimeter=orthogonalPerimeter;fontSize=16;fontColor=#000000;" parent="1" vertex="1">
          <mxGeometry x="786" y="943" width="10" height="75" as="geometry" />
        </mxCell>
        <mxCell id="KVfL51wSrEzLZ2b-MY0j-34" value="&lt;font color=&quot;#ff0000&quot;&gt;失败重试&lt;/font&gt;" style="edgeStyle=orthogonalEdgeStyle;html=1;align=left;spacingLeft=2;endArrow=block;rounded=0;strokeColor=#FF0000;fontSize=16;fontColor=#000000;" parent="1" edge="1">
          <mxGeometry x="0.0991" y="-40" relative="1" as="geometry">
            <mxPoint x="793" y="888" as="sourcePoint" />
            <Array as="points">
              <mxPoint x="756" y="888" />
              <mxPoint x="756" y="943" />
            </Array>
            <mxPoint x="786" y="943" as="targetPoint" />
            <mxPoint as="offset" />
          </mxGeometry>
        </mxCell>
        <mxCell id="KVfL51wSrEzLZ2b-MY0j-35" value="" style="endArrow=classic;html=1;rounded=0;fontSize=16;strokeColor=#009900;" parent="1" edge="1">
          <mxGeometry width="50" height="50" relative="1" as="geometry">
            <mxPoint x="600" y="868" as="sourcePoint" />
            <mxPoint x="790" y="868" as="targetPoint" />
          </mxGeometry>
        </mxCell>
        <mxCell id="KVfL51wSrEzLZ2b-MY0j-36" value="&lt;font color=&quot;#009900&quot;&gt;返回结果&lt;/font&gt;" style="edgeLabel;html=1;align=center;verticalAlign=middle;resizable=0;points=[];fontSize=16;" parent="KVfL51wSrEzLZ2b-MY0j-35" vertex="1" connectable="0">
          <mxGeometry x="-0.1589" relative="1" as="geometry">
            <mxPoint x="12" as="offset" />
          </mxGeometry>
        </mxCell>
        <mxCell id="KVfL51wSrEzLZ2b-MY0j-46" value="" style="html=1;points=[];perimeter=orthogonalPerimeter;fontSize=16;" parent="1" vertex="1">
          <mxGeometry x="585" y="1070" width="10" height="70" as="geometry" />
        </mxCell>
        <mxCell id="KVfL51wSrEzLZ2b-MY0j-51" value="&lt;font color=&quot;#ff0080&quot;&gt;&lt;span style=&quot;font-size: 16px;&quot;&gt;未归档时转交&lt;/span&gt;&lt;/font&gt;" style="text;html=1;align=center;verticalAlign=middle;resizable=0;points=[];autosize=1;strokeColor=none;fillColor=none;" parent="1" vertex="1">
          <mxGeometry x="811" y="810" width="120" height="30" as="geometry" />
        </mxCell>
        <mxCell id="KVfL51wSrEzLZ2b-MY0j-54" value="&lt;font color=&quot;#ff0000&quot; style=&quot;font-size: 16px;&quot;&gt;SyncUpdateIcsNodeInfoV2&lt;/font&gt;&lt;font color=&quot;#ff0000&quot; style=&quot;font-size: 16px;&quot;&gt;优化点：&lt;br&gt;1.缩小循环范围：循环之前已经变化的requestid的实体&lt;br&gt;2.将列表分成多份，多线程任务处理&lt;/font&gt;" style="text;html=1;align=left;verticalAlign=middle;resizable=0;points=[];autosize=1;strokeColor=none;fillColor=none;" parent="1" vertex="1">
          <mxGeometry x="70" y="1220" width="410" height="70" as="geometry" />
        </mxCell>
        <mxCell id="KVfL51wSrEzLZ2b-MY0j-56" value="" style="endArrow=classic;html=1;rounded=0;strokeColor=#FF0080;" parent="1" edge="1">
          <mxGeometry width="50" height="50" relative="1" as="geometry">
            <mxPoint x="400" y="644.5" as="sourcePoint" />
            <mxPoint x="580" y="644.5" as="targetPoint" />
          </mxGeometry>
        </mxCell>
        <mxCell id="KVfL51wSrEzLZ2b-MY0j-59" value="&lt;font color=&quot;#ff0080&quot; style=&quot;font-size: 16px;&quot;&gt;更新ICS工单&lt;/font&gt;" style="edgeLabel;html=1;align=center;verticalAlign=middle;resizable=0;points=[];" parent="KVfL51wSrEzLZ2b-MY0j-56" vertex="1" connectable="0">
          <mxGeometry x="0.2867" y="2" relative="1" as="geometry">
            <mxPoint x="-26" y="3" as="offset" />
          </mxGeometry>
        </mxCell>
        <mxCell id="ha25nS1604K2PC6ypRlL-1" value="&lt;span style=&quot;font-size: 16px;&quot;&gt;&lt;font color=&quot;#ff0000&quot;&gt;转交工单消息去重(1分钟过期时间)&lt;/font&gt;&lt;/span&gt;" style="text;html=1;align=center;verticalAlign=middle;resizable=0;points=[];autosize=1;strokeColor=none;fillColor=none;" vertex="1" parent="1">
          <mxGeometry x="810" y="851" width="270" height="30" as="geometry" />
        </mxCell>
      </root>
    </mxGraphModel>
  </diagram>
  <diagram id="SA4dK-JHIKUE1464ucVn" name="OA触发工单创建">
    <mxGraphModel dx="1050" dy="549" grid="1" gridSize="10" guides="1" tooltips="1" connect="1" arrows="1" fold="1" page="1" pageScale="1" pageWidth="1169" pageHeight="1654" math="0" shadow="0">
      <root>
        <mxCell id="0" />
        <mxCell id="1" parent="0" />
        <mxCell id="XvnNrOgu6rdZlQ9bC1LB-1" value="SyncCreateIcsTicketInfoV2" style="shape=umlLifeline;perimeter=lifelinePerimeter;whiteSpace=wrap;html=1;container=1;collapsible=0;recursiveResize=0;outlineConnect=0;fontSize=16;fillColor=#ffe6cc;strokeColor=#d79b00;" parent="1" vertex="1">
          <mxGeometry x="103" y="135" width="206" height="1175" as="geometry" />
        </mxCell>
        <mxCell id="XvnNrOgu6rdZlQ9bC1LB-2" value="" style="html=1;points=[];perimeter=orthogonalPerimeter;fontSize=16;" parent="XvnNrOgu6rdZlQ9bC1LB-1" vertex="1">
          <mxGeometry x="97" y="90" width="10" height="1050" as="geometry" />
        </mxCell>
        <mxCell id="XvnNrOgu6rdZlQ9bC1LB-3" value="获取未完结工单" style="edgeStyle=orthogonalEdgeStyle;html=1;align=left;spacingLeft=2;endArrow=block;rounded=0;entryX=1;entryY=0;strokeColor=#000000;fontSize=16;fontColor=#000000;" parent="XvnNrOgu6rdZlQ9bC1LB-1" edge="1">
          <mxGeometry relative="1" as="geometry">
            <mxPoint x="112" y="105" as="sourcePoint" />
            <Array as="points">
              <mxPoint x="117" y="105" />
              <mxPoint x="147" y="105" />
              <mxPoint x="147" y="155" />
            </Array>
            <mxPoint x="122" y="155" as="targetPoint" />
          </mxGeometry>
        </mxCell>
        <mxCell id="XvnNrOgu6rdZlQ9bC1LB-4" value="" style="html=1;points=[];perimeter=orthogonalPerimeter;fontSize=16;" parent="XvnNrOgu6rdZlQ9bC1LB-1" vertex="1">
          <mxGeometry x="107" y="145" width="10" height="60" as="geometry" />
        </mxCell>
        <mxCell id="XvnNrOgu6rdZlQ9bC1LB-5" value="监控6秒内相关流程的创建事件" style="edgeStyle=orthogonalEdgeStyle;html=1;align=left;spacingLeft=2;endArrow=block;rounded=0;entryX=1;entryY=0;strokeColor=#000000;fontSize=16;fontColor=#000000;" parent="XvnNrOgu6rdZlQ9bC1LB-1" edge="1">
          <mxGeometry relative="1" as="geometry">
            <mxPoint x="112" y="105" as="sourcePoint" />
            <Array as="points">
              <mxPoint x="117" y="105" />
              <mxPoint x="147" y="105" />
              <mxPoint x="147" y="155" />
            </Array>
            <mxPoint x="122" y="155" as="targetPoint" />
          </mxGeometry>
        </mxCell>
        <mxCell id="XvnNrOgu6rdZlQ9bC1LB-6" value="" style="html=1;points=[];perimeter=orthogonalPerimeter;fontSize=16;" parent="XvnNrOgu6rdZlQ9bC1LB-1" vertex="1">
          <mxGeometry x="107" y="230" width="10" height="70" as="geometry" />
        </mxCell>
        <mxCell id="XvnNrOgu6rdZlQ9bC1LB-9" value="开始工单创建" style="edgeStyle=orthogonalEdgeStyle;html=1;align=left;spacingLeft=2;endArrow=block;rounded=0;entryX=1;entryY=0;strokeColor=#000000;fontSize=16;fontColor=#000000;" parent="XvnNrOgu6rdZlQ9bC1LB-1" edge="1">
          <mxGeometry relative="1" as="geometry">
            <mxPoint x="112" y="345" as="sourcePoint" />
            <Array as="points">
              <mxPoint x="117" y="345" />
              <mxPoint x="147" y="345" />
              <mxPoint x="147" y="395" />
            </Array>
            <mxPoint x="122" y="395" as="targetPoint" />
          </mxGeometry>
        </mxCell>
        <mxCell id="XvnNrOgu6rdZlQ9bC1LB-10" value="" style="html=1;points=[];perimeter=orthogonalPerimeter;fontSize=16;" parent="XvnNrOgu6rdZlQ9bC1LB-1" vertex="1">
          <mxGeometry x="107" y="385" width="10" height="735" as="geometry" />
        </mxCell>
        <mxCell id="-8qVID3StWfisk0gMNF--13" value="" style="endArrow=classic;html=1;rounded=0;strokeColor=#009900;" parent="XvnNrOgu6rdZlQ9bC1LB-1" edge="1">
          <mxGeometry width="50" height="50" relative="1" as="geometry">
            <mxPoint x="116" y="498" as="sourcePoint" />
            <mxPoint x="416" y="498" as="targetPoint" />
          </mxGeometry>
        </mxCell>
        <mxCell id="-8qVID3StWfisk0gMNF--14" value="&lt;font color=&quot;#009900&quot; style=&quot;font-size: 16px;&quot;&gt;流程编号非空，工单创建&lt;/font&gt;" style="edgeLabel;html=1;align=center;verticalAlign=middle;resizable=0;points=[];" parent="-8qVID3StWfisk0gMNF--13" vertex="1" connectable="0">
          <mxGeometry x="-0.2533" y="-1" relative="1" as="geometry">
            <mxPoint x="38" y="-6" as="offset" />
          </mxGeometry>
        </mxCell>
        <mxCell id="-8qVID3StWfisk0gMNF--17" value="" style="html=1;points=[];perimeter=orthogonalPerimeter;fontSize=16;" parent="XvnNrOgu6rdZlQ9bC1LB-1" vertex="1">
          <mxGeometry x="117" y="625" width="10" height="425" as="geometry" />
        </mxCell>
        <mxCell id="-8qVID3StWfisk0gMNF--18" value="创建成功，关键数据落库" style="edgeStyle=orthogonalEdgeStyle;html=1;align=left;spacingLeft=2;endArrow=block;rounded=0;entryX=1;entryY=0;strokeColor=#000000;fontSize=16;fontColor=#000000;" parent="XvnNrOgu6rdZlQ9bC1LB-1" edge="1">
          <mxGeometry relative="1" as="geometry">
            <mxPoint x="122" y="585" as="sourcePoint" />
            <Array as="points">
              <mxPoint x="127" y="585" />
              <mxPoint x="157" y="585" />
              <mxPoint x="157" y="635" />
            </Array>
            <mxPoint x="132" y="635" as="targetPoint" />
          </mxGeometry>
        </mxCell>
        <mxCell id="-8qVID3StWfisk0gMNF--20" value="" style="endArrow=classic;html=1;rounded=0;strokeColor=#FF8000;" parent="XvnNrOgu6rdZlQ9bC1LB-1" edge="1">
          <mxGeometry width="50" height="50" relative="1" as="geometry">
            <mxPoint x="136" y="694" as="sourcePoint" />
            <mxPoint x="416" y="694" as="targetPoint" />
          </mxGeometry>
        </mxCell>
        <mxCell id="-8qVID3StWfisk0gMNF--21" value="&lt;font color=&quot;#ff8000&quot; style=&quot;font-size: 16px;&quot;&gt;异步更新工单数据&lt;/font&gt;" style="edgeLabel;html=1;align=center;verticalAlign=middle;resizable=0;points=[];" parent="-8qVID3StWfisk0gMNF--20" vertex="1" connectable="0">
          <mxGeometry x="0.272" relative="1" as="geometry">
            <mxPoint x="-41" as="offset" />
          </mxGeometry>
        </mxCell>
        <mxCell id="-8qVID3StWfisk0gMNF--43" value="" style="endArrow=classic;html=1;rounded=0;strokeColor=#FF0080;" parent="XvnNrOgu6rdZlQ9bC1LB-1" edge="1">
          <mxGeometry width="50" height="50" relative="1" as="geometry">
            <mxPoint x="856" y="285" as="sourcePoint" />
            <mxPoint x="126" y="285" as="targetPoint" />
          </mxGeometry>
        </mxCell>
        <mxCell id="-8qVID3StWfisk0gMNF--44" value="&lt;font color=&quot;#ff0080&quot; style=&quot;font-size: 16px;&quot;&gt;返回消息&lt;/font&gt;" style="edgeLabel;html=1;align=center;verticalAlign=middle;resizable=0;points=[];" parent="XvnNrOgu6rdZlQ9bC1LB-1" vertex="1" connectable="0">
          <mxGeometry x="286" y="284" as="geometry" />
        </mxCell>
        <mxCell id="XvnNrOgu6rdZlQ9bC1LB-18" value="ICS" style="shape=umlLifeline;perimeter=lifelinePerimeter;whiteSpace=wrap;html=1;container=1;collapsible=0;recursiveResize=0;outlineConnect=0;fontSize=16;fillColor=#f8cecc;strokeColor=#b85450;" parent="1" vertex="1">
          <mxGeometry x="464" y="135" width="140" height="1115" as="geometry" />
        </mxCell>
        <mxCell id="XvnNrOgu6rdZlQ9bC1LB-20" value="" style="html=1;points=[];perimeter=orthogonalPerimeter;fontSize=16;" parent="XvnNrOgu6rdZlQ9bC1LB-18" vertex="1">
          <mxGeometry x="65" y="483" width="10" height="65" as="geometry" />
        </mxCell>
        <mxCell id="-8qVID3StWfisk0gMNF--19" value="" style="html=1;points=[];perimeter=orthogonalPerimeter;fontSize=16;" parent="XvnNrOgu6rdZlQ9bC1LB-18" vertex="1">
          <mxGeometry x="65" y="684" width="10" height="65" as="geometry" />
        </mxCell>
        <mxCell id="XvnNrOgu6rdZlQ9bC1LB-52" value="" style="html=1;points=[];perimeter=orthogonalPerimeter;fontSize=16;" parent="XvnNrOgu6rdZlQ9bC1LB-18" vertex="1">
          <mxGeometry x="65" y="926" width="10" height="70" as="geometry" />
        </mxCell>
        <mxCell id="-8qVID3StWfisk0gMNF--24" value="" style="html=1;points=[];perimeter=orthogonalPerimeter;fontSize=16;" parent="XvnNrOgu6rdZlQ9bC1LB-18" vertex="1">
          <mxGeometry x="65" y="815" width="10" height="70" as="geometry" />
        </mxCell>
        <mxCell id="-8qVID3StWfisk0gMNF--39" value="&lt;font color=&quot;#ff0000&quot; style=&quot;font-size: 16px;&quot;&gt;转交工单&lt;/font&gt;" style="text;html=1;align=center;verticalAlign=middle;resizable=0;points=[];autosize=1;strokeColor=none;fillColor=none;" parent="XvnNrOgu6rdZlQ9bC1LB-18" vertex="1">
          <mxGeometry x="-25" y="815" width="90" height="30" as="geometry" />
        </mxCell>
        <mxCell id="-8qVID3StWfisk0gMNF--41" value="" style="endArrow=classic;html=1;rounded=0;strokeColor=#FF0080;exitX=0.9;exitY=0.186;exitDx=0;exitDy=0;exitPerimeter=0;" parent="XvnNrOgu6rdZlQ9bC1LB-18" source="XvnNrOgu6rdZlQ9bC1LB-6" edge="1">
          <mxGeometry width="50" height="50" relative="1" as="geometry">
            <mxPoint x="-234" y="243" as="sourcePoint" />
            <mxPoint x="496" y="243" as="targetPoint" />
          </mxGeometry>
        </mxCell>
        <mxCell id="-8qVID3StWfisk0gMNF--42" value="&lt;font color=&quot;#ff0080&quot; style=&quot;font-size: 16px;&quot;&gt;获取队列中之前未创建的工单&lt;/font&gt;" style="edgeLabel;html=1;align=center;verticalAlign=middle;resizable=0;points=[];" parent="-8qVID3StWfisk0gMNF--41" vertex="1" connectable="0">
          <mxGeometry x="-0.5432" relative="1" as="geometry">
            <mxPoint x="21" as="offset" />
          </mxGeometry>
        </mxCell>
        <mxCell id="XvnNrOgu6rdZlQ9bC1LB-24" value="OA系统" style="text;html=1;resizable=0;autosize=1;align=center;verticalAlign=middle;points=[];fillColor=none;strokeColor=none;rounded=0;shadow=0;glass=0;dashed=1;sketch=0;strokeWidth=1;fontSize=16;" parent="1" vertex="1">
          <mxGeometry x="166" y="95" width="80" height="30" as="geometry" />
        </mxCell>
        <mxCell id="XvnNrOgu6rdZlQ9bC1LB-26" value="ICS系统" style="text;html=1;resizable=0;autosize=1;align=center;verticalAlign=middle;points=[];fillColor=none;strokeColor=none;rounded=0;shadow=0;glass=0;dashed=1;sketch=0;strokeWidth=1;fontSize=16;" parent="1" vertex="1">
          <mxGeometry x="494" y="95" width="80" height="30" as="geometry" />
        </mxCell>
        <mxCell id="XvnNrOgu6rdZlQ9bC1LB-27" value="TransferIcsTicketService" style="shape=umlLifeline;perimeter=lifelinePerimeter;whiteSpace=wrap;html=1;container=1;collapsible=0;recursiveResize=0;outlineConnect=0;fontSize=16;fillColor=#ffe6cc;strokeColor=#d79b00;" parent="1" vertex="1">
          <mxGeometry x="640" y="135" width="209" height="1110" as="geometry" />
        </mxCell>
        <mxCell id="XvnNrOgu6rdZlQ9bC1LB-28" value="&lt;div class=&quot;lake-content&quot;&gt;&lt;span class=&quot;ne-text&quot;&gt;TransferIcsTicketService&lt;/span&gt;&lt;/div&gt;" style="shape=umlLifeline;perimeter=lifelinePerimeter;whiteSpace=wrap;html=1;container=1;collapsible=0;recursiveResize=0;outlineConnect=0;fontSize=16;fillColor=#ffe6cc;strokeColor=#d79b00;" parent="XvnNrOgu6rdZlQ9bC1LB-27" vertex="1">
          <mxGeometry width="209" height="1110" as="geometry" />
        </mxCell>
        <mxCell id="-8qVID3StWfisk0gMNF--27" value="" style="endArrow=classic;html=1;rounded=0;strokeColor=#009900;" parent="XvnNrOgu6rdZlQ9bC1LB-28" edge="1">
          <mxGeometry width="50" height="50" relative="1" as="geometry">
            <mxPoint x="-101" y="985" as="sourcePoint" />
            <mxPoint x="80" y="985" as="targetPoint" />
          </mxGeometry>
        </mxCell>
        <mxCell id="-8qVID3StWfisk0gMNF--28" value="&lt;font color=&quot;#009900&quot; style=&quot;font-size: 16px;&quot;&gt;返回结果&lt;/font&gt;" style="edgeLabel;html=1;align=center;verticalAlign=middle;resizable=0;points=[];" parent="-8qVID3StWfisk0gMNF--27" vertex="1" connectable="0">
          <mxGeometry x="0.272" relative="1" as="geometry">
            <mxPoint x="-24" as="offset" />
          </mxGeometry>
        </mxCell>
        <mxCell id="XvnNrOgu6rdZlQ9bC1LB-32" value="OA系统" style="text;html=1;resizable=0;autosize=1;align=center;verticalAlign=middle;points=[];fillColor=none;strokeColor=none;rounded=0;shadow=0;glass=0;dashed=1;sketch=0;strokeWidth=1;fontSize=16;" parent="1" vertex="1">
          <mxGeometry x="702.5" y="95" width="80" height="30" as="geometry" />
        </mxCell>
        <mxCell id="XvnNrOgu6rdZlQ9bC1LB-33" value="&lt;div class=&quot;lake-content&quot;&gt;&lt;span class=&quot;ne-text&quot;&gt;Redis&lt;/span&gt;&lt;/div&gt;" style="shape=umlLifeline;perimeter=lifelinePerimeter;whiteSpace=wrap;html=1;container=1;collapsible=0;recursiveResize=0;outlineConnect=0;fontSize=16;fillColor=#dae8fc;strokeColor=#6c8ebf;" parent="1" vertex="1">
          <mxGeometry x="880" y="135" width="190" height="1165" as="geometry" />
        </mxCell>
        <mxCell id="XvnNrOgu6rdZlQ9bC1LB-21" value="" style="html=1;points=[];perimeter=orthogonalPerimeter;fontSize=16;" parent="XvnNrOgu6rdZlQ9bC1LB-33" vertex="1">
          <mxGeometry x="90" y="430" width="10" height="690" as="geometry" />
        </mxCell>
        <mxCell id="-8qVID3StWfisk0gMNF--40" value="" style="html=1;points=[];perimeter=orthogonalPerimeter;fontSize=16;" parent="XvnNrOgu6rdZlQ9bC1LB-33" vertex="1">
          <mxGeometry x="90" y="225" width="10" height="75" as="geometry" />
        </mxCell>
        <mxCell id="XvnNrOgu6rdZlQ9bC1LB-41" value="消息队列" style="text;html=1;resizable=0;autosize=1;align=center;verticalAlign=middle;points=[];fillColor=none;strokeColor=none;rounded=0;shadow=0;glass=0;dashed=1;sketch=0;strokeWidth=1;fontSize=16;" parent="1" vertex="1">
          <mxGeometry x="930" y="95" width="90" height="30" as="geometry" />
        </mxCell>
        <mxCell id="XvnNrOgu6rdZlQ9bC1LB-45" value="" style="endArrow=classic;html=1;rounded=0;fontSize=16;strokeColor=#009900;exitX=-0.08;exitY=0.756;exitDx=0;exitDy=0;exitPerimeter=0;" parent="1" edge="1">
          <mxGeometry width="50" height="50" relative="1" as="geometry">
            <mxPoint x="720" y="1083" as="sourcePoint" />
            <mxPoint x="544" y="1083" as="targetPoint" />
          </mxGeometry>
        </mxCell>
        <mxCell id="XvnNrOgu6rdZlQ9bC1LB-46" value="&lt;font color=&quot;#009900&quot;&gt;转交ICS工单&lt;/font&gt;" style="edgeLabel;html=1;align=center;verticalAlign=middle;resizable=0;points=[];fontSize=16;" parent="XvnNrOgu6rdZlQ9bC1LB-45" vertex="1" connectable="0">
          <mxGeometry x="-0.1589" relative="1" as="geometry">
            <mxPoint x="-17" as="offset" />
          </mxGeometry>
        </mxCell>
        <mxCell id="XvnNrOgu6rdZlQ9bC1LB-47" value="" style="html=1;points=[];perimeter=orthogonalPerimeter;fontSize=16;" parent="1" vertex="1">
          <mxGeometry x="740" y="910" width="10" height="270" as="geometry" />
        </mxCell>
        <mxCell id="XvnNrOgu6rdZlQ9bC1LB-48" value="" style="html=1;points=[];perimeter=orthogonalPerimeter;fontSize=16;fontColor=#000000;" parent="1" vertex="1">
          <mxGeometry x="730" y="1058" width="10" height="75" as="geometry" />
        </mxCell>
        <mxCell id="XvnNrOgu6rdZlQ9bC1LB-49" value="&lt;font color=&quot;#ff0000&quot;&gt;失败重试&lt;/font&gt;" style="edgeStyle=orthogonalEdgeStyle;html=1;align=left;spacingLeft=2;endArrow=block;rounded=0;strokeColor=#FF0000;fontSize=16;fontColor=#000000;" parent="1" edge="1">
          <mxGeometry x="0.0991" y="-40" relative="1" as="geometry">
            <mxPoint x="737" y="1003" as="sourcePoint" />
            <Array as="points">
              <mxPoint x="700" y="1003" />
              <mxPoint x="700" y="1058" />
            </Array>
            <mxPoint x="730" y="1058" as="targetPoint" />
            <mxPoint as="offset" />
          </mxGeometry>
        </mxCell>
        <mxCell id="XvnNrOgu6rdZlQ9bC1LB-55" value="" style="endArrow=classic;html=1;rounded=0;strokeColor=#FF0080;" parent="1" edge="1">
          <mxGeometry width="50" height="50" relative="1" as="geometry">
            <mxPoint x="230" y="580" as="sourcePoint" />
            <mxPoint x="960" y="580" as="targetPoint" />
          </mxGeometry>
        </mxCell>
        <mxCell id="-8qVID3StWfisk0gMNF--1" value="&lt;font color=&quot;#ff0080&quot; style=&quot;font-size: 16px;&quot;&gt;流程编号为空，消息入队，暂不进行工单创建&lt;/font&gt;" style="edgeLabel;html=1;align=center;verticalAlign=middle;resizable=0;points=[];" parent="XvnNrOgu6rdZlQ9bC1LB-55" vertex="1" connectable="0">
          <mxGeometry x="-0.5432" relative="1" as="geometry">
            <mxPoint x="367" as="offset" />
          </mxGeometry>
        </mxCell>
        <mxCell id="XvnNrOgu6rdZlQ9bC1LB-22" value="" style="endArrow=classic;html=1;rounded=0;fontSize=16;strokeColor=#009900;" parent="1" edge="1">
          <mxGeometry width="50" height="50" relative="1" as="geometry">
            <mxPoint x="524" y="673" as="sourcePoint" />
            <mxPoint x="220" y="673" as="targetPoint" />
          </mxGeometry>
        </mxCell>
        <mxCell id="-8qVID3StWfisk0gMNF--8" value="&lt;span style=&quot;font-size: 16px;&quot;&gt;&lt;font color=&quot;#009900&quot;&gt;返回结果&lt;/font&gt;&lt;/span&gt;" style="edgeLabel;html=1;align=center;verticalAlign=middle;resizable=0;points=[];" parent="XvnNrOgu6rdZlQ9bC1LB-22" vertex="1" connectable="0">
          <mxGeometry x="-0.2039" y="1" relative="1" as="geometry">
            <mxPoint x="-28" as="offset" />
          </mxGeometry>
        </mxCell>
        <mxCell id="-8qVID3StWfisk0gMNF--25" value="" style="endArrow=classic;html=1;rounded=0;fontSize=16;strokeColor=#009900;exitX=-0.36;exitY=0.235;exitDx=0;exitDy=0;exitPerimeter=0;entryX=0.98;entryY=0.283;entryDx=0;entryDy=0;entryPerimeter=0;" parent="1" source="XvnNrOgu6rdZlQ9bC1LB-47" target="-8qVID3StWfisk0gMNF--24" edge="1">
          <mxGeometry width="50" height="50" relative="1" as="geometry">
            <mxPoint x="730" y="968" as="sourcePoint" />
            <mxPoint x="550" y="968" as="targetPoint" />
          </mxGeometry>
        </mxCell>
        <mxCell id="-8qVID3StWfisk0gMNF--26" value="&lt;font color=&quot;#009900&quot;&gt;转交ICS工单&lt;/font&gt;" style="edgeLabel;html=1;align=center;verticalAlign=middle;resizable=0;points=[];fontSize=16;" parent="-8qVID3StWfisk0gMNF--25" vertex="1" connectable="0">
          <mxGeometry x="-0.1589" relative="1" as="geometry">
            <mxPoint x="-17" as="offset" />
          </mxGeometry>
        </mxCell>
        <mxCell id="-8qVID3StWfisk0gMNF--36" value="&lt;font color=&quot;#ff0080&quot; style=&quot;font-size: 16px;&quot;&gt;返回结果&lt;/font&gt;" style="text;html=1;align=center;verticalAlign=middle;resizable=0;points=[];autosize=1;strokeColor=none;fillColor=none;" parent="1" vertex="1">
          <mxGeometry x="300" y="1200" width="90" height="30" as="geometry" />
        </mxCell>
        <mxCell id="-8qVID3StWfisk0gMNF--22" value="" style="endArrow=classic;html=1;rounded=0;entryX=-0.44;entryY=0.075;entryDx=0;entryDy=0;entryPerimeter=0;" parent="1" target="XvnNrOgu6rdZlQ9bC1LB-47" edge="1">
          <mxGeometry width="50" height="50" relative="1" as="geometry">
            <mxPoint x="230" y="930" as="sourcePoint" />
            <mxPoint x="730" y="930" as="targetPoint" />
          </mxGeometry>
        </mxCell>
        <mxCell id="-8qVID3StWfisk0gMNF--23" value="&lt;font style=&quot;font-size: 16px;&quot;&gt;工单转交&lt;/font&gt;" style="edgeLabel;html=1;align=center;verticalAlign=middle;resizable=0;points=[];" parent="-8qVID3StWfisk0gMNF--22" vertex="1" connectable="0">
          <mxGeometry x="0.272" relative="1" as="geometry">
            <mxPoint x="82" as="offset" />
          </mxGeometry>
        </mxCell>
        <mxCell id="-8qVID3StWfisk0gMNF--35" value="" style="endArrow=classic;html=1;rounded=0;exitX=-0.4;exitY=0.965;exitDx=0;exitDy=0;exitPerimeter=0;strokeColor=#FF0080;entryX=1.26;entryY=0.969;entryDx=0;entryDy=0;entryPerimeter=0;" parent="1" source="XvnNrOgu6rdZlQ9bC1LB-21" target="XvnNrOgu6rdZlQ9bC1LB-10" edge="1">
          <mxGeometry width="50" height="50" relative="1" as="geometry">
            <mxPoint x="739" y="1230" as="sourcePoint" />
            <mxPoint x="230" y="1231" as="targetPoint" />
          </mxGeometry>
        </mxCell>
        <mxCell id="-8qVID3StWfisk0gMNF--37" value="&lt;font color=&quot;#ff0000&quot; style=&quot;font-size: 16px;&quot;&gt;创建工单&lt;/font&gt;" style="text;html=1;align=center;verticalAlign=middle;resizable=0;points=[];autosize=1;strokeColor=none;fillColor=none;" parent="1" vertex="1">
          <mxGeometry x="534" y="620" width="90" height="30" as="geometry" />
        </mxCell>
        <mxCell id="-8qVID3StWfisk0gMNF--38" value="&lt;font color=&quot;#ff0000&quot; style=&quot;font-size: 16px;&quot;&gt;更新工单&lt;/font&gt;" style="text;html=1;align=center;verticalAlign=middle;resizable=0;points=[];autosize=1;strokeColor=none;fillColor=none;" parent="1" vertex="1">
          <mxGeometry x="534" y="818" width="90" height="30" as="geometry" />
        </mxCell>
      </root>
    </mxGraphModel>
  </diagram>
  <diagram id="XjkLDQqOF0Cm41wicdjF" name="补偿机制">
    <mxGraphModel dx="1050" dy="549" grid="1" gridSize="10" guides="1" tooltips="1" connect="1" arrows="1" fold="1" page="1" pageScale="1" pageWidth="827" pageHeight="1169" math="0" shadow="0">
      <root>
        <mxCell id="0" />
        <mxCell id="1" parent="0" />
        <mxCell id="5F81EcI129IW7cuUdeZU-3" value="ICS" style="shape=umlLifeline;perimeter=lifelinePerimeter;whiteSpace=wrap;html=1;container=1;collapsible=0;recursiveResize=0;outlineConnect=0;fontSize=16;fillColor=#dae8fc;strokeColor=#6c8ebf;" parent="1" vertex="1">
          <mxGeometry x="140" y="100" width="100" height="300" as="geometry" />
        </mxCell>
        <mxCell id="5F81EcI129IW7cuUdeZU-4" value="" style="html=1;points=[];perimeter=orthogonalPerimeter;fontSize=16;" parent="5F81EcI129IW7cuUdeZU-3" vertex="1">
          <mxGeometry x="45" y="90" width="10" height="120" as="geometry" />
        </mxCell>
        <mxCell id="5F81EcI129IW7cuUdeZU-5" value="OA" style="shape=umlLifeline;perimeter=lifelinePerimeter;whiteSpace=wrap;html=1;container=1;collapsible=0;recursiveResize=0;outlineConnect=0;fontSize=16;fillColor=#ffe6cc;strokeColor=#d79b00;" parent="1" vertex="1">
          <mxGeometry x="290" y="100" width="100" height="300" as="geometry" />
        </mxCell>
        <mxCell id="5F81EcI129IW7cuUdeZU-6" value="" style="html=1;points=[];perimeter=orthogonalPerimeter;fontSize=16;" parent="5F81EcI129IW7cuUdeZU-5" vertex="1">
          <mxGeometry x="45" y="90" width="10" height="120" as="geometry" />
        </mxCell>
        <mxCell id="_S1Zt-mj7MHNqbDgcMjh-1" value="&lt;font style=&quot;font-size: 16px;&quot;&gt;补偿机制：&lt;br&gt;1.因为表单数据不满足流程业务关系，导致流程创建失败。补偿：ICS更新表单数据&lt;br&gt;2.因为网络原因导致请求未到OA中间服务，导致流程创建失败。补偿：回复里输入&quot;创建OA工单&quot;&lt;br&gt;3.ICS创建工单时以及回复里上传的附件同步OA失败。补偿：识别附件传输失败，自动延迟3分钟重试一次&lt;br&gt;&lt;/font&gt;" style="text;html=1;align=left;verticalAlign=middle;resizable=0;points=[];autosize=1;strokeColor=none;fillColor=none;" vertex="1" parent="1">
          <mxGeometry x="40" y="440" width="770" height="90" as="geometry" />
        </mxCell>
        <mxCell id="_S1Zt-mj7MHNqbDgcMjh-2" value="&lt;font style=&quot;font-size: 16px;&quot;&gt;涉及技术点：&lt;br&gt;1.设计模式使用：策略+工厂+模板&lt;br&gt;2.延迟队列使用：使用Redisson做定时任务&lt;br&gt;&lt;/font&gt;" style="text;html=1;align=left;verticalAlign=middle;resizable=0;points=[];autosize=1;strokeColor=none;fillColor=none;" vertex="1" parent="1">
          <mxGeometry x="40" y="580" width="330" height="70" as="geometry" />
        </mxCell>
      </root>
    </mxGraphModel>
  </diagram>
</mxfile>
